%TF.GenerationSoftware,KiCad,Pcbnew,10.0.4*%
%TF.CreationDate,2026-07-16T12:21:03+02:00*%
%TF.ProjectId,pcb1,70636231-2e6b-4696-9361-645f70636258,rev?*%
%TF.SameCoordinates,Original*%
%TF.FileFunction,Copper,L2,Bot*%
%TF.FilePolarity,Positive*%
%FSLAX46Y46*%
G04 Gerber Fmt 4.6, Leading zero omitted, Abs format (unit mm)*
G04 Created by KiCad (PCBNEW 10.0.4) date 2026-07-16 12:21:03*
%MOMM*%
%LPD*%
G01*
G04 APERTURE LIST*
G04 Aperture macros list*
%AMRoundRect*
0 Rectangle with rounded corners*
0 $1 Rounding radius*
0 $2 $3 $4 $5 $6 $7 $8 $9 X,Y pos of 4 corners*
0 Add a 4 corners polygon primitive as box body*
4,1,4,$2,$3,$4,$5,$6,$7,$8,$9,$2,$3,0*
0 Add four circle primitives for the rounded corners*
1,1,$1+$1,$2,$3*
1,1,$1+$1,$4,$5*
1,1,$1+$1,$6,$7*
1,1,$1+$1,$8,$9*
0 Add four rect primitives between the rounded corners*
20,1,$1+$1,$2,$3,$4,$5,0*
20,1,$1+$1,$4,$5,$6,$7,0*
20,1,$1+$1,$6,$7,$8,$9,0*
20,1,$1+$1,$8,$9,$2,$3,0*%
G04 Aperture macros list end*
%TA.AperFunction,SMDPad,CuDef*%
%ADD10RoundRect,0.082000X0.718000X-0.328000X0.718000X0.328000X-0.718000X0.328000X-0.718000X-0.328000X0*%
%TD*%
%TA.AperFunction,SMDPad,CuDef*%
%ADD11RoundRect,0.082000X-0.718000X0.328000X-0.718000X-0.328000X0.718000X-0.328000X0.718000X0.328000X0*%
%TD*%
%TA.AperFunction,ComponentPad*%
%ADD12R,2.000000X2.000000*%
%TD*%
%TA.AperFunction,ComponentPad*%
%ADD13C,2.000000*%
%TD*%
%TA.AperFunction,ComponentPad*%
%ADD14R,2.000000X3.200000*%
%TD*%
%TA.AperFunction,ComponentPad*%
%ADD15C,2.200000*%
%TD*%
%TA.AperFunction,SMDPad,CuDef*%
%ADD16RoundRect,0.082000X-0.328000X-0.718000X0.328000X-0.718000X0.328000X0.718000X-0.328000X0.718000X0*%
%TD*%
%TA.AperFunction,SMDPad,CuDef*%
%ADD17RoundRect,0.082000X0.328000X0.718000X-0.328000X0.718000X-0.328000X-0.718000X0.328000X-0.718000X0*%
%TD*%
%TA.AperFunction,ComponentPad*%
%ADD18RoundRect,0.170000X0.680000X-0.680000X0.680000X0.680000X-0.680000X0.680000X-0.680000X-0.680000X0*%
%TD*%
%TA.AperFunction,ComponentPad*%
%ADD19C,1.700000*%
%TD*%
%TA.AperFunction,ComponentPad*%
%ADD20R,3.500000X1.700000*%
%TD*%
%TA.AperFunction,ComponentPad*%
%ADD21O,3.600000X1.700000*%
%TD*%
%TA.AperFunction,ComponentPad*%
%ADD22O,3.700000X1.700000*%
%TD*%
%TA.AperFunction,ViaPad*%
%ADD23C,0.600000*%
%TD*%
%TA.AperFunction,Conductor*%
%ADD24C,0.200000*%
%TD*%
G04 APERTURE END LIST*
D10*
%TO.P,D7,1,VDD_1*%
%TO.N,+5V*%
X210599999Y-86652842D03*
%TO.P,D7,2,DOUT_2*%
%TO.N,Net-(D7-DOUT)*%
X210599999Y-85152842D03*
%TO.P,D7,3,VSS_3*%
%TO.N,GND*%
X205399999Y-85152842D03*
%TO.P,D7,4,DIN_4*%
%TO.N,Net-(D6-DOUT)*%
X205399999Y-86652842D03*
%TD*%
D11*
%TO.P,D4,1,VDD_1*%
%TO.N,+5V*%
X140900001Y-117147158D03*
%TO.P,D4,2,DOUT_2*%
%TO.N,Net-(D4-DOUT)*%
X140900001Y-118647158D03*
%TO.P,D4,3,VSS_3*%
%TO.N,GND*%
X146100001Y-118647158D03*
%TO.P,D4,4,DIN_4*%
%TO.N,Net-(D3-DOUT)*%
X146100001Y-117147158D03*
%TD*%
D12*
%TO.P,SW6,A,A_A*%
%TO.N,Net-(U1-PA6_A10_D10_MOSI)*%
X205500000Y-79500000D03*
D13*
%TO.P,SW6,B,B_B*%
%TO.N,Net-(U1-PA5_A9_D9_MISO)*%
X210500000Y-79500000D03*
%TO.P,SW6,C,C_C*%
%TO.N,GND*%
X208000000Y-79500000D03*
D14*
%TO.P,SW6,MP*%
%TO.N,N/C*%
X202400000Y-72000000D03*
X213600000Y-72000000D03*
D13*
%TO.P,SW6,S1,S1_S1*%
%TO.N,Net-(U1-PA02_A0_D0)*%
X210500000Y-65000000D03*
%TO.P,SW6,S2,S2_S2*%
%TO.N,GND*%
X205500000Y-65000000D03*
%TD*%
D11*
%TO.P,D3,1,VDD_1*%
%TO.N,+5V*%
X129400001Y-85147158D03*
%TO.P,D3,2,DOUT_2*%
%TO.N,Net-(D3-DOUT)*%
X129400001Y-86647158D03*
%TO.P,D3,3,VSS_3*%
%TO.N,GND*%
X134600001Y-86647158D03*
%TO.P,D3,4,DIN_4*%
%TO.N,Net-(D2-DOUT)*%
X134600001Y-85147158D03*
%TD*%
D15*
%TO.P,SW2,1,1_1*%
%TO.N,Net-(U1-PA11_A3_D3)*%
X196540000Y-95420000D03*
%TO.P,SW2,2,2_2*%
%TO.N,GND*%
X190190000Y-97960000D03*
%TD*%
D11*
%TO.P,D6,1,VDD_1*%
%TO.N,+5V*%
X194900001Y-117147158D03*
%TO.P,D6,2,DOUT_2*%
%TO.N,Net-(D6-DOUT)*%
X194900001Y-118647158D03*
%TO.P,D6,3,VSS_3*%
%TO.N,GND*%
X200100001Y-118647158D03*
%TO.P,D6,4,DIN_4*%
%TO.N,Net-(D5-DOUT)*%
X200100001Y-117147158D03*
%TD*%
%TO.P,D11,1,VDD_1*%
%TO.N,+5V*%
X161300000Y-74647158D03*
%TO.P,D11,2,DOUT_2*%
%TO.N,Net-(D11-DOUT)*%
X161300000Y-76147158D03*
%TO.P,D11,3,VSS_3*%
%TO.N,GND*%
X166500000Y-76147158D03*
%TO.P,D11,4,DIN_4*%
%TO.N,Net-(D10-DOUT)*%
X166500000Y-74647158D03*
%TD*%
D16*
%TO.P,D9,1,VDD_1*%
%TO.N,+5V*%
X215000000Y-56467221D03*
%TO.P,D9,2,DOUT_2*%
%TO.N,Net-(D10-DIN)*%
X216500000Y-56467221D03*
%TO.P,D9,3,VSS_3*%
%TO.N,GND*%
X216500000Y-51267221D03*
%TO.P,D9,4,DIN_4*%
%TO.N,Net-(D8-DOUT)*%
X215000000Y-51267221D03*
%TD*%
D17*
%TO.P,D8,1,VDD_1*%
%TO.N,+5V*%
X217652842Y-69900001D03*
%TO.P,D8,2,DOUT_2*%
%TO.N,Net-(D8-DOUT)*%
X216152842Y-69900001D03*
%TO.P,D8,3,VSS_3*%
%TO.N,GND*%
X216152842Y-75100001D03*
%TO.P,D8,4,DIN_4*%
%TO.N,Net-(D7-DOUT)*%
X217652842Y-75100001D03*
%TD*%
D12*
%TO.P,SW7,A,A_A*%
%TO.N,Net-(U1-PA7_A8_D8_SCK)*%
X129400000Y-79500000D03*
D13*
%TO.P,SW7,B,B_B*%
%TO.N,Net-(U1-PB09_A7_D7_RX)*%
X134400000Y-79500000D03*
%TO.P,SW7,C,C_C*%
%TO.N,GND*%
X131900000Y-79500000D03*
D14*
%TO.P,SW7,MP*%
%TO.N,N/C*%
X126300000Y-72000000D03*
X137500000Y-72000000D03*
D13*
%TO.P,SW7,S1,S1_S1*%
%TO.N,Net-(U1-PA4_A1_D1)*%
X134400000Y-65000000D03*
%TO.P,SW7,S2,S2_S2*%
%TO.N,GND*%
X129400000Y-65000000D03*
%TD*%
D11*
%TO.P,D12,1,VDD_1*%
%TO.N,+5V*%
X170872896Y-60063118D03*
%TO.P,D12,2,DOUT_2*%
%TO.N,unconnected-(D12-DOUT-Pad2)*%
X170872896Y-61563118D03*
%TO.P,D12,3,VSS_3*%
%TO.N,GND*%
X176072896Y-61563118D03*
%TO.P,D12,4,DIN_4*%
%TO.N,Net-(D11-DOUT)*%
X176072896Y-60063118D03*
%TD*%
D15*
%TO.P,SW1,1,1_1*%
%TO.N,Net-(U1-PA10_A2_D2)*%
X149040000Y-95420000D03*
%TO.P,SW1,2,2_2*%
%TO.N,GND*%
X142690000Y-97960000D03*
%TD*%
D16*
%TO.P,D2,1,VDD_1*%
%TO.N,+5V*%
X122147158Y-74599999D03*
%TO.P,D2,2,DOUT_2*%
%TO.N,Net-(D2-DOUT)*%
X123647158Y-74599999D03*
%TO.P,D2,3,VSS_3*%
%TO.N,GND*%
X123647158Y-69399999D03*
%TO.P,D2,4,DIN_4*%
%TO.N,Net-(D1-DOUT)*%
X122147158Y-69399999D03*
%TD*%
D11*
%TO.P,D5,1,VDD_1*%
%TO.N,+5V*%
X168400001Y-110647158D03*
%TO.P,D5,2,DOUT_2*%
%TO.N,Net-(D5-DOUT)*%
X168400001Y-112147158D03*
%TO.P,D5,3,VSS_3*%
%TO.N,GND*%
X173600001Y-112147158D03*
%TO.P,D5,4,DIN_4*%
%TO.N,Net-(D4-DOUT)*%
X173600001Y-110647158D03*
%TD*%
D16*
%TO.P,D1,1,VDD_1*%
%TO.N,+5V*%
X122647158Y-56467221D03*
%TO.P,D1,2,DOUT_2*%
%TO.N,Net-(D1-DOUT)*%
X124147158Y-56467221D03*
%TO.P,D1,3,VSS_3*%
%TO.N,GND*%
X124147158Y-51267221D03*
%TO.P,D1,4,DIN_4*%
%TO.N,Net-(D1-DIN)*%
X122647158Y-51267221D03*
%TD*%
D11*
%TO.P,D10,1,VDD_1*%
%TO.N,+5V*%
X174900001Y-74647158D03*
%TO.P,D10,2,DOUT_2*%
%TO.N,Net-(D10-DOUT)*%
X174900001Y-76147158D03*
%TO.P,D10,3,VSS_3*%
%TO.N,GND*%
X180100001Y-76147158D03*
%TO.P,D10,4,DIN_4*%
%TO.N,Net-(D10-DIN)*%
X180100001Y-74647158D03*
%TD*%
D18*
%TO.P,U2,1,GND_1*%
%TO.N,GND*%
X153000000Y-125810000D03*
D19*
%TO.P,U2,2,VCC_2*%
%TO.N,+5V*%
X153000000Y-123270000D03*
%TO.P,U2,3,SCL_3*%
%TO.N,Net-(U1-PA9_A5_D5_SCL)*%
X153000000Y-120730000D03*
%TO.P,U2,4,SDA_4*%
%TO.N,Net-(U1-PA8_A4_D4_SDA)*%
X153000000Y-118190000D03*
%TD*%
D20*
%TO.P,U1,1,PA02_A0_D0_1*%
%TO.N,Net-(U1-PA02_A0_D0)*%
X179500000Y-85300000D03*
D21*
%TO.P,U1,2,PA4_A1_D1_2*%
%TO.N,Net-(U1-PA4_A1_D1)*%
X179500000Y-87840000D03*
%TO.P,U1,3,PA10_A2_D2_3*%
%TO.N,Net-(U1-PA10_A2_D2)*%
X179500000Y-90380000D03*
%TO.P,U1,4,PA11_A3_D3_4*%
%TO.N,Net-(U1-PA11_A3_D3)*%
X179500000Y-92920000D03*
%TO.P,U1,5,PA8_A4_D4_SDA_5*%
%TO.N,Net-(U1-PA8_A4_D4_SDA)*%
X179500000Y-95460000D03*
%TO.P,U1,6,PA9_A5_D5_SCL_6*%
%TO.N,Net-(U1-PA9_A5_D5_SCL)*%
X179500000Y-98000000D03*
%TO.P,U1,7,PB08_A6_D6_TX_7*%
%TO.N,Net-(D1-DIN)*%
X179500000Y-100540000D03*
%TO.P,U1,8,PB09_A7_D7_RX_8*%
%TO.N,Net-(U1-PB09_A7_D7_RX)*%
X162250000Y-100540000D03*
%TO.P,U1,9,PA7_A8_D8_SCK_9*%
%TO.N,Net-(U1-PA7_A8_D8_SCK)*%
X162250000Y-98000000D03*
%TO.P,U1,10,PA5_A9_D9_MISO_10*%
%TO.N,Net-(U1-PA5_A9_D9_MISO)*%
X162250000Y-95460000D03*
D22*
%TO.P,U1,11,PA6_A10_D10_MOSI_11*%
%TO.N,Net-(U1-PA6_A10_D10_MOSI)*%
X162250000Y-92920000D03*
%TO.P,U1,12,3V3_12*%
%TO.N,unconnected-(U1-3V3-Pad12)*%
X162250000Y-90380000D03*
%TO.P,U1,13,GND_13*%
%TO.N,GND*%
X162250000Y-87840000D03*
%TO.P,U1,14,5V_14*%
%TO.N,+5V*%
X162250000Y-85300000D03*
%TD*%
D23*
%TO.N,+5V*%
X217500000Y-63500000D03*
X151000000Y-76500000D03*
X152500000Y-74647158D03*
X211250000Y-57250000D03*
%TO.N,GND*%
X165500000Y-85500000D03*
X182500000Y-86500000D03*
X170500000Y-78500000D03*
X182500000Y-72000000D03*
X168000000Y-83000000D03*
X178969898Y-112147158D03*
%TO.N,Net-(D4-DOUT)*%
X171500000Y-118500000D03*
X176500000Y-111500000D03*
%TO.N,Net-(D11-DOUT)*%
X159000000Y-75500000D03*
X159000000Y-73500000D03*
%TD*%
%TO.N,+5V*%
D24*
X175701370Y-117147158D02*
X174147158Y-117147158D01*
X175701370Y-117147158D02*
X192500000Y-117147158D01*
X174924264Y-117924264D02*
X175701370Y-117147158D01*
%TO.N,Net-(D4-DOUT)*%
X154000000Y-127500000D02*
X149000000Y-127500000D01*
X140900001Y-119400001D02*
X140900001Y-118647158D01*
X163000000Y-118500000D02*
X154000000Y-127500000D01*
X171500000Y-118500000D02*
X163000000Y-118500000D01*
X149000000Y-127500000D02*
X140900001Y-119400001D01*
%TO.N,GND*%
X190147158Y-112147158D02*
X189542842Y-112147158D01*
X190190000Y-112190000D02*
X190147158Y-112147158D01*
X190190000Y-112190000D02*
X191000000Y-113000000D01*
X190190000Y-111500000D02*
X190190000Y-112190000D01*
X189542842Y-112147158D02*
X178969898Y-112147158D01*
X190190000Y-111500000D02*
X189542842Y-112147158D01*
X190190000Y-97960000D02*
X190190000Y-111500000D01*
X200900001Y-118647158D02*
X200100001Y-118647158D01*
X198500000Y-113000000D02*
X201500000Y-116000000D01*
X201500000Y-118047159D02*
X200900001Y-118647158D01*
X191000000Y-113000000D02*
X198500000Y-113000000D01*
X201500000Y-116000000D02*
X201500000Y-118047159D01*
%TO.N,+5V*%
X193000000Y-119516422D02*
X193000000Y-117647158D01*
X194983578Y-121500000D02*
X193000000Y-119516422D01*
X203000000Y-119500000D02*
X201000000Y-121500000D01*
X203000000Y-90500000D02*
X203000000Y-119500000D01*
X209500000Y-88500000D02*
X205000000Y-88500000D01*
X205000000Y-88500000D02*
X203000000Y-90500000D01*
X210599999Y-87400001D02*
X209500000Y-88500000D01*
X201000000Y-121500000D02*
X194983578Y-121500000D01*
X210599999Y-86652842D02*
X210599999Y-87400001D01*
X169000000Y-72500000D02*
X169500000Y-73000000D01*
X169500000Y-73000000D02*
X172500000Y-73000000D01*
X169000000Y-61500000D02*
X169000000Y-72500000D01*
X170436882Y-60063118D02*
X169000000Y-61500000D01*
X170872896Y-60063118D02*
X170436882Y-60063118D01*
X167500000Y-73000000D02*
X168500000Y-73000000D01*
X169000000Y-72500000D02*
X168500000Y-73000000D01*
X168500000Y-73000000D02*
X169500000Y-73000000D01*
X174147158Y-74647158D02*
X172500000Y-73000000D01*
X174900001Y-74647158D02*
X174147158Y-74647158D01*
X167500000Y-73000000D02*
X162000000Y-73000000D01*
X161300000Y-73700000D02*
X161300000Y-74647158D01*
X162000000Y-73000000D02*
X161300000Y-73700000D01*
%TO.N,GND*%
X176072896Y-65572896D02*
X182500000Y-72000000D01*
X176072896Y-61563118D02*
X176072896Y-65572896D01*
X205500000Y-64500000D02*
X205500000Y-65000000D01*
X216000000Y-59000000D02*
X211000000Y-59000000D01*
X218000000Y-57000000D02*
X216000000Y-59000000D01*
X218000000Y-52000000D02*
X218000000Y-57000000D01*
X217267221Y-51267221D02*
X218000000Y-52000000D01*
X216500000Y-51267221D02*
X217267221Y-51267221D01*
X211000000Y-59000000D02*
X205500000Y-64500000D01*
%TO.N,+5V*%
X174900001Y-73599999D02*
X174900001Y-74647158D01*
X193000000Y-73000000D02*
X175500000Y-73000000D01*
X175500000Y-73000000D02*
X174900001Y-73599999D01*
X209532779Y-56467221D02*
X193000000Y-73000000D01*
X210500000Y-56467221D02*
X209532779Y-56467221D01*
%TO.N,Net-(D10-DIN)*%
X216500000Y-57267221D02*
X215767221Y-58000000D01*
X210000000Y-58000000D02*
X193352842Y-74647158D01*
X193352842Y-74647158D02*
X180100001Y-74647158D01*
X216500000Y-56467221D02*
X216500000Y-57267221D01*
X215767221Y-58000000D02*
X210000000Y-58000000D01*
%TO.N,+5V*%
X174924264Y-117924264D02*
X174147158Y-117147158D01*
X174147158Y-117147158D02*
X160000000Y-117147158D01*
X174924264Y-117924264D02*
X173348529Y-119500000D01*
X140100001Y-117147158D02*
X140900001Y-117147158D01*
X139500000Y-119000000D02*
X139500000Y-117747159D01*
X139500000Y-117747159D02*
X140100001Y-117147158D01*
X155500000Y-128000000D02*
X148500000Y-128000000D01*
X173348529Y-119500000D02*
X164000000Y-119500000D01*
X164000000Y-119500000D02*
X155500000Y-128000000D01*
X148500000Y-128000000D02*
X139500000Y-119000000D01*
X128300001Y-88050001D02*
X128300001Y-85447158D01*
X139000000Y-101500000D02*
X139000000Y-98750000D01*
X139000000Y-98750000D02*
X128300001Y-88050001D01*
X141000000Y-103500000D02*
X139000000Y-101500000D01*
X141000000Y-117047159D02*
X141000000Y-103500000D01*
X128300001Y-85447158D02*
X128600001Y-85147158D01*
X128600001Y-85147158D02*
X129400001Y-85147158D01*
X140900001Y-117147158D02*
X141000000Y-117047159D01*
%TO.N,Net-(D3-DOUT)*%
X129400001Y-87400001D02*
X129400001Y-86647158D01*
X140000000Y-101000000D02*
X140000000Y-98000000D01*
X140000000Y-98000000D02*
X129400001Y-87400001D01*
X146100001Y-107100001D02*
X140000000Y-101000000D01*
X146100001Y-117147158D02*
X146100001Y-107100001D01*
%TO.N,Net-(D2-DOUT)*%
X129000000Y-82000000D02*
X123647158Y-76647158D01*
X132377240Y-82000000D02*
X129000000Y-82000000D01*
X123647158Y-76647158D02*
X123647158Y-74599999D01*
X134438620Y-84061380D02*
X132377240Y-82000000D01*
X134438620Y-84985777D02*
X134438620Y-84061380D01*
X134600001Y-85147158D02*
X134438620Y-84985777D01*
%TO.N,+5V*%
X160135000Y-116135000D02*
X159635000Y-116635000D01*
X122500000Y-49600000D02*
X127251472Y-49600000D01*
X194900001Y-117147158D02*
X193000000Y-117147158D01*
X121100000Y-51000000D02*
X122500000Y-49600000D01*
X165622842Y-110647158D02*
X159635000Y-116635000D01*
X163250000Y-85300000D02*
X159800000Y-85300000D01*
X152298630Y-74647158D02*
X152500000Y-74647158D01*
X217500000Y-63500000D02*
X217500000Y-69747159D01*
X168400001Y-110647158D02*
X165622842Y-110647158D01*
X168400001Y-90450001D02*
X163250000Y-85300000D01*
X210500000Y-56467221D02*
X210500000Y-56500000D01*
X215000000Y-56467221D02*
X214000000Y-56467221D01*
X160000000Y-116270000D02*
X160135000Y-116135000D01*
X214000000Y-56467221D02*
X212000000Y-56467221D01*
X192500000Y-117147158D02*
X193000000Y-117647158D01*
X217500000Y-69747159D02*
X217652842Y-69900001D01*
X127251472Y-49600000D02*
X152298630Y-74647158D01*
X193000000Y-117147158D02*
X192500000Y-117147158D01*
X121100000Y-55600000D02*
X121100000Y-51000000D01*
X212000000Y-56467221D02*
X210500000Y-56467221D01*
X129400001Y-83900001D02*
X129400001Y-85147158D01*
X122647158Y-56467221D02*
X121967221Y-56467221D01*
X122147158Y-74599999D02*
X122147158Y-76647158D01*
X212000000Y-56500000D02*
X211250000Y-57250000D01*
X160500000Y-117147158D02*
X160000000Y-116647158D01*
X193000000Y-117647158D02*
X193500000Y-117147158D01*
X212000000Y-56467221D02*
X212000000Y-56500000D01*
X152500000Y-74647158D02*
X161300000Y-74647158D01*
X160000000Y-116647158D02*
X160000000Y-116270000D01*
X168400001Y-110647158D02*
X168400001Y-90450001D01*
X159800000Y-85300000D02*
X151000000Y-76500000D01*
X210500000Y-56500000D02*
X211250000Y-57250000D01*
X159122842Y-117147158D02*
X153000000Y-123270000D01*
X159635000Y-116635000D02*
X159122842Y-117147158D01*
X160000000Y-117147158D02*
X159122842Y-117147158D01*
X121967221Y-56467221D02*
X121100000Y-55600000D01*
X122147158Y-76647158D02*
X129400001Y-83900001D01*
%TO.N,Net-(D7-DOUT)*%
X211552843Y-82000000D02*
X211552843Y-84199998D01*
X211552843Y-84199998D02*
X210599999Y-85152842D01*
X211552843Y-82000000D02*
X217652842Y-75900001D01*
X217652842Y-75900001D02*
X217652842Y-75100001D01*
%TO.N,GND*%
X142690000Y-101690000D02*
X147500000Y-106500000D01*
X175400000Y-78000000D02*
X171000000Y-78000000D01*
X142690000Y-97960000D02*
X142690000Y-101690000D01*
X147500000Y-118047159D02*
X147500000Y-120000000D01*
X126517221Y-51267221D02*
X129400000Y-54150000D01*
X180100001Y-77399999D02*
X179500000Y-78000000D01*
X131900000Y-79500000D02*
X140240000Y-87840000D01*
X146100001Y-118647158D02*
X147476421Y-120023579D01*
X128047157Y-65000000D02*
X129400000Y-65000000D01*
X129400000Y-54150000D02*
X129400000Y-65000000D01*
X165500000Y-85500000D02*
X168000000Y-83000000D01*
X140240000Y-87840000D02*
X163250000Y-87840000D01*
X171000000Y-78000000D02*
X170500000Y-78500000D01*
X168147158Y-76147158D02*
X166500000Y-76147158D01*
X212399999Y-75100001D02*
X208000000Y-79500000D01*
X147476421Y-120023579D02*
X153000000Y-125547157D01*
X147500000Y-118047159D02*
X146900001Y-118647158D01*
X153000000Y-125547157D02*
X153000000Y-125810000D01*
X179500000Y-78000000D02*
X175400000Y-78000000D01*
X134600001Y-86647158D02*
X134600001Y-89870001D01*
X129400000Y-77000000D02*
X129400000Y-65000000D01*
X171000000Y-78000000D02*
X170000000Y-78000000D01*
X147500000Y-120000000D02*
X147476421Y-120023579D01*
X131900000Y-79500000D02*
X129400000Y-77000000D01*
X134600001Y-89870001D02*
X142690000Y-97960000D01*
X205399999Y-85152842D02*
X202997158Y-85152842D01*
X147500000Y-106500000D02*
X147500000Y-118047159D01*
X190190000Y-95090000D02*
X182500000Y-87400000D01*
X146900001Y-118647158D02*
X146100001Y-118647158D01*
X202997158Y-85152842D02*
X190190000Y-97960000D01*
X190190000Y-97960000D02*
X190190000Y-95090000D01*
X124147158Y-51267221D02*
X126517221Y-51267221D01*
X182500000Y-87400000D02*
X182500000Y-86500000D01*
X180100001Y-76147158D02*
X180100001Y-77399999D01*
X205399999Y-82100001D02*
X205399999Y-85152842D01*
X170500000Y-78500000D02*
X170000000Y-78000000D01*
X216152842Y-75100001D02*
X212399999Y-75100001D01*
X170000000Y-78000000D02*
X168147158Y-76147158D01*
X123647158Y-69399999D02*
X128047157Y-65000000D01*
X173600001Y-112147158D02*
X178969898Y-112147158D01*
X208000000Y-79500000D02*
X205399999Y-82100001D01*
%TO.N,Net-(D4-DOUT)*%
X176500000Y-111500000D02*
X175647158Y-110647158D01*
X175647158Y-110647158D02*
X173600001Y-110647158D01*
%TO.N,Net-(U1-PA02_A0_D0)*%
X192300000Y-85300000D02*
X178500000Y-85300000D01*
X210500000Y-65000000D02*
X210500000Y-67100000D01*
X210500000Y-67100000D02*
X192300000Y-85300000D01*
%TO.N,Net-(D11-DOUT)*%
X164500000Y-72500000D02*
X160000000Y-72500000D01*
X159500000Y-76000000D02*
X159000000Y-75500000D01*
X175500000Y-58500000D02*
X170500000Y-58500000D01*
X170500000Y-58500000D02*
X169341640Y-59658360D01*
X160000000Y-72500000D02*
X159000000Y-73500000D01*
X168500000Y-61341640D02*
X168500000Y-68500000D01*
X161300000Y-76147158D02*
X159647158Y-76147158D01*
X176072896Y-59072896D02*
X175500000Y-58500000D01*
X176072896Y-60063118D02*
X176072896Y-59072896D01*
X159647158Y-76147158D02*
X159000000Y-75500000D01*
X169341640Y-59658360D02*
X168500000Y-61341640D01*
X168500000Y-68500000D02*
X164500000Y-72500000D01*
%TO.N,Net-(D10-DOUT)*%
X174900001Y-76147158D02*
X174100001Y-76147158D01*
X174100001Y-76147158D02*
X172600001Y-74647158D01*
X172600001Y-74647158D02*
X166500000Y-74647158D01*
%TO.N,Net-(D8-DOUT)*%
X217500000Y-50000000D02*
X218400000Y-50900000D01*
X216152842Y-60347158D02*
X216152842Y-69900001D01*
X215467221Y-50000000D02*
X217500000Y-50000000D01*
X218400000Y-58100000D02*
X216152842Y-60347158D01*
X215000000Y-50467221D02*
X215467221Y-50000000D01*
X215000000Y-51267221D02*
X215000000Y-50467221D01*
X218400000Y-50900000D02*
X218400000Y-58100000D01*
%TO.N,Net-(D1-DOUT)*%
X124147158Y-57267221D02*
X122147158Y-59267221D01*
X122147158Y-59267221D02*
X122147158Y-69399999D01*
X124147158Y-56467221D02*
X124147158Y-57267221D01*
%TO.N,Net-(D1-DIN)*%
X175000000Y-97500000D02*
X178040000Y-100540000D01*
X158000000Y-81500000D02*
X171000000Y-81500000D01*
X178040000Y-100540000D02*
X178500000Y-100540000D01*
X126500000Y-50000000D02*
X158000000Y-81500000D01*
X122647158Y-51267221D02*
X122647158Y-50467221D01*
X175000000Y-85500000D02*
X175000000Y-97500000D01*
X123114379Y-50000000D02*
X126500000Y-50000000D01*
X171000000Y-81500000D02*
X175000000Y-85500000D01*
X122647158Y-50467221D02*
X123114379Y-50000000D01*
%TO.N,Net-(D5-DOUT)*%
X168400001Y-112900001D02*
X168400001Y-112147158D01*
X197606387Y-114000000D02*
X169500000Y-114000000D01*
X200100001Y-117147158D02*
X200100001Y-116493614D01*
X200100001Y-116493614D02*
X197606387Y-114000000D01*
X169500000Y-114000000D02*
X168400001Y-112900001D01*
%TO.N,Net-(D6-DOUT)*%
X205399999Y-86652842D02*
X202000000Y-90052841D01*
X202000000Y-119000000D02*
X200500000Y-120500000D01*
X195500000Y-120500000D02*
X194900001Y-119900001D01*
X202000000Y-90052841D02*
X202000000Y-119000000D01*
X200500000Y-120500000D02*
X195500000Y-120500000D01*
X194900001Y-119900001D02*
X194900001Y-118647158D01*
%TO.N,Net-(U1-PA7_A8_D8_SCK)*%
X133000000Y-81500000D02*
X149500000Y-98000000D01*
X149500000Y-98000000D02*
X163250000Y-98000000D01*
X131500000Y-81500000D02*
X133000000Y-81500000D01*
X129400000Y-79500000D02*
X129500000Y-79500000D01*
X129500000Y-79500000D02*
X131500000Y-81500000D01*
%TD*%
M02*
