%TF.GenerationSoftware,KiCad,Pcbnew,10.0.4*%
%TF.CreationDate,2026-08-22T19:20:03+02:00*%
%TF.ProjectId,pcb1,70636231-2e6b-4696-9361-645f70636258,rev?*%
%TF.SameCoordinates,Original*%
%TF.FileFunction,Soldermask,Bot*%
%TF.FilePolarity,Negative*%
%FSLAX46Y46*%
G04 Gerber Fmt 4.6, Leading zero omitted, Abs format (unit mm)*
G04 Created by KiCad (PCBNEW 10.0.4) date 2026-08-22 19:20:03*
%MOMM*%
%LPD*%
G01*
G04 APERTURE LIST*
G04 Aperture macros list*
%AMRoundRect*
0 Rectangle with rounded corners*
0 $1 Rounding radius*
0 $2 $3 $4 $5 $6 $7 $8 $9 X,Y pos of 4 corners*
0 Add a 4 corners polygon primitive as box body*
4,1,4,$2,$3,$4,$5,$6,$7,$8,$9,$2,$3,0*
0 Add four circle primitives for the rounded corners*
1,1,$1+$1,$2,$3*
1,1,$1+$1,$4,$5*
1,1,$1+$1,$6,$7*
1,1,$1+$1,$8,$9*
0 Add four rect primitives between the rounded corners*
20,1,$1+$1,$2,$3,$4,$5,0*
20,1,$1+$1,$4,$5,$6,$7,0*
20,1,$1+$1,$6,$7,$8,$9,0*
20,1,$1+$1,$8,$9,$2,$3,0*%
G04 Aperture macros list end*
%ADD10RoundRect,0.082000X0.718000X-0.328000X0.718000X0.328000X-0.718000X0.328000X-0.718000X-0.328000X0*%
%ADD11RoundRect,0.082000X-0.718000X0.328000X-0.718000X-0.328000X0.718000X-0.328000X0.718000X0.328000X0*%
%ADD12R,2.000000X2.000000*%
%ADD13C,2.000000*%
%ADD14R,2.000000X3.200000*%
%ADD15C,1.700000*%
%ADD16C,4.000000*%
%ADD17C,2.200000*%
%ADD18RoundRect,0.082000X-0.328000X-0.718000X0.328000X-0.718000X0.328000X0.718000X-0.328000X0.718000X0*%
%ADD19RoundRect,0.082000X0.328000X0.718000X-0.328000X0.718000X-0.328000X-0.718000X0.328000X-0.718000X0*%
%ADD20RoundRect,0.170000X0.680000X-0.680000X0.680000X0.680000X-0.680000X0.680000X-0.680000X-0.680000X0*%
%ADD21R,3.500000X1.700000*%
%ADD22O,3.600000X1.700000*%
%ADD23O,3.700000X1.700000*%
G04 APERTURE END LIST*
D10*
%TO.C,D7*%
X210599999Y-86652842D03*
X210599999Y-85152842D03*
X205399999Y-85152842D03*
X205399999Y-86652842D03*
%TD*%
D11*
%TO.C,D4*%
X140900001Y-117147158D03*
X140900001Y-118647158D03*
X146100001Y-118647158D03*
X146100001Y-117147158D03*
%TD*%
D12*
%TO.C,SW6*%
X205500000Y-79500000D03*
D13*
X210500000Y-79500000D03*
X208000000Y-79500000D03*
D14*
X202400000Y-72000000D03*
X213600000Y-72000000D03*
D13*
X210500000Y-65000000D03*
X205500000Y-65000000D03*
%TD*%
D11*
%TO.C,D3*%
X129400001Y-85147158D03*
X129400001Y-86647158D03*
X134600001Y-86647158D03*
X134600001Y-85147158D03*
%TD*%
D15*
%TO.C,SW2*%
X188920000Y-100500000D03*
D16*
X194000000Y-100500000D03*
D15*
X199080000Y-100500000D03*
D17*
X196540000Y-95420000D03*
X190190000Y-97960000D03*
%TD*%
D11*
%TO.C,D6*%
X194900001Y-117147158D03*
X194900001Y-118647158D03*
X200100001Y-118647158D03*
X200100001Y-117147158D03*
%TD*%
%TO.C,D11*%
X161300000Y-74647158D03*
X161300000Y-76147158D03*
X166500000Y-76147158D03*
X166500000Y-74647158D03*
%TD*%
D18*
%TO.C,D9*%
X215000000Y-56467221D03*
X216500000Y-56467221D03*
X216500000Y-51267221D03*
X215000000Y-51267221D03*
%TD*%
D19*
%TO.C,D8*%
X217652842Y-69900001D03*
X216152842Y-69900001D03*
X216152842Y-75100001D03*
X217652842Y-75100001D03*
%TD*%
D12*
%TO.C,SW7*%
X129400000Y-79500000D03*
D13*
X134400000Y-79500000D03*
X131900000Y-79500000D03*
D14*
X126300000Y-72000000D03*
X137500000Y-72000000D03*
D13*
X134400000Y-65000000D03*
X129400000Y-65000000D03*
%TD*%
D11*
%TO.C,D12*%
X170872896Y-60063118D03*
X170872896Y-61563118D03*
X176072896Y-61563118D03*
X176072896Y-60063118D03*
%TD*%
D15*
%TO.C,SW1*%
X141420000Y-100500000D03*
D16*
X146500000Y-100500000D03*
D15*
X151580000Y-100500000D03*
D17*
X149040000Y-95420000D03*
X142690000Y-97960000D03*
%TD*%
D18*
%TO.C,D2*%
X122147158Y-74599999D03*
X123647158Y-74599999D03*
X123647158Y-69399999D03*
X122147158Y-69399999D03*
%TD*%
D11*
%TO.C,D5*%
X168400001Y-110647158D03*
X168400001Y-112147158D03*
X173600001Y-112147158D03*
X173600001Y-110647158D03*
%TD*%
D18*
%TO.C,D1*%
X122647158Y-56467221D03*
X124147158Y-56467221D03*
X124147158Y-51267221D03*
X122647158Y-51267221D03*
%TD*%
D11*
%TO.C,D10*%
X174900001Y-74647158D03*
X174900001Y-76147158D03*
X180100001Y-76147158D03*
X180100001Y-74647158D03*
%TD*%
D20*
%TO.C,U2*%
X153000000Y-125810000D03*
D15*
X153000000Y-123270000D03*
X153000000Y-120730000D03*
X153000000Y-118190000D03*
%TD*%
D21*
%TO.C,U1*%
X179500000Y-85300000D03*
D22*
X179500000Y-87840000D03*
X179500000Y-90380000D03*
X179500000Y-92920000D03*
X179500000Y-95460000D03*
X179500000Y-98000000D03*
X179500000Y-100540000D03*
X162250000Y-100540000D03*
X162250000Y-98000000D03*
X162250000Y-95460000D03*
D23*
X162250000Y-92920000D03*
X162250000Y-90380000D03*
X162250000Y-87840000D03*
X162250000Y-85300000D03*
%TD*%
M02*
