%TF.GenerationSoftware,KiCad,Pcbnew,10.0.4*%
%TF.CreationDate,2026-07-16T12:21:03+02:00*%
%TF.ProjectId,pcb1,70636231-2e6b-4696-9361-645f70636258,rev?*%
%TF.SameCoordinates,Original*%
%TF.FileFunction,Copper,L1,Top*%
%TF.FilePolarity,Positive*%
%FSLAX46Y46*%
G04 Gerber Fmt 4.6, Leading zero omitted, Abs format (unit mm)*
G04 Created by KiCad (PCBNEW 10.0.4) date 2026-07-16 12:21:03*
%MOMM*%
%LPD*%
G01*
G04 APERTURE LIST*
G04 Aperture macros list*
%AMRoundRect*
0 Rectangle with rounded corners*
0 $1 Rounding radius*
0 $2 $3 $4 $5 $6 $7 $8 $9 X,Y pos of 4 corners*
0 Add a 4 corners polygon primitive as box body*
4,1,4,$2,$3,$4,$5,$6,$7,$8,$9,$2,$3,0*
0 Add four circle primitives for the rounded corners*
1,1,$1+$1,$2,$3*
1,1,$1+$1,$4,$5*
1,1,$1+$1,$6,$7*
1,1,$1+$1,$8,$9*
0 Add four rect primitives between the rounded corners*
20,1,$1+$1,$2,$3,$4,$5,0*
20,1,$1+$1,$4,$5,$6,$7,0*
20,1,$1+$1,$6,$7,$8,$9,0*
20,1,$1+$1,$8,$9,$2,$3,0*%
G04 Aperture macros list end*
%TA.AperFunction,ComponentPad*%
%ADD10R,2.000000X2.000000*%
%TD*%
%TA.AperFunction,ComponentPad*%
%ADD11C,2.000000*%
%TD*%
%TA.AperFunction,ComponentPad*%
%ADD12R,2.000000X3.200000*%
%TD*%
%TA.AperFunction,ComponentPad*%
%ADD13C,2.200000*%
%TD*%
%TA.AperFunction,ComponentPad*%
%ADD14RoundRect,0.170000X0.680000X-0.680000X0.680000X0.680000X-0.680000X0.680000X-0.680000X-0.680000X0*%
%TD*%
%TA.AperFunction,ComponentPad*%
%ADD15C,1.700000*%
%TD*%
%TA.AperFunction,ComponentPad*%
%ADD16R,3.500000X1.700000*%
%TD*%
%TA.AperFunction,ComponentPad*%
%ADD17O,3.600000X1.700000*%
%TD*%
%TA.AperFunction,ComponentPad*%
%ADD18O,3.700000X1.700000*%
%TD*%
%TA.AperFunction,ViaPad*%
%ADD19C,0.600000*%
%TD*%
%TA.AperFunction,Conductor*%
%ADD20C,0.200000*%
%TD*%
G04 APERTURE END LIST*
D10*
%TO.P,SW6,A,A_A*%
%TO.N,Net-(U1-PA6_A10_D10_MOSI)*%
X205500000Y-79500000D03*
D11*
%TO.P,SW6,B,B_B*%
%TO.N,Net-(U1-PA5_A9_D9_MISO)*%
X210500000Y-79500000D03*
%TO.P,SW6,C,C_C*%
%TO.N,GND*%
X208000000Y-79500000D03*
D12*
%TO.P,SW6,MP*%
%TO.N,N/C*%
X202400000Y-72000000D03*
X213600000Y-72000000D03*
D11*
%TO.P,SW6,S1,S1_S1*%
%TO.N,Net-(U1-PA02_A0_D0)*%
X210500000Y-65000000D03*
%TO.P,SW6,S2,S2_S2*%
%TO.N,GND*%
X205500000Y-65000000D03*
%TD*%
D13*
%TO.P,SW2,1,1_1*%
%TO.N,Net-(U1-PA11_A3_D3)*%
X196540000Y-95420000D03*
%TO.P,SW2,2,2_2*%
%TO.N,GND*%
X190190000Y-97960000D03*
%TD*%
D10*
%TO.P,SW7,A,A_A*%
%TO.N,Net-(U1-PA7_A8_D8_SCK)*%
X129400000Y-79500000D03*
D11*
%TO.P,SW7,B,B_B*%
%TO.N,Net-(U1-PB09_A7_D7_RX)*%
X134400000Y-79500000D03*
%TO.P,SW7,C,C_C*%
%TO.N,GND*%
X131900000Y-79500000D03*
D12*
%TO.P,SW7,MP*%
%TO.N,N/C*%
X126300000Y-72000000D03*
X137500000Y-72000000D03*
D11*
%TO.P,SW7,S1,S1_S1*%
%TO.N,Net-(U1-PA4_A1_D1)*%
X134400000Y-65000000D03*
%TO.P,SW7,S2,S2_S2*%
%TO.N,GND*%
X129400000Y-65000000D03*
%TD*%
D13*
%TO.P,SW1,1,1_1*%
%TO.N,Net-(U1-PA10_A2_D2)*%
X149040000Y-95420000D03*
%TO.P,SW1,2,2_2*%
%TO.N,GND*%
X142690000Y-97960000D03*
%TD*%
D14*
%TO.P,U2,1,GND_1*%
%TO.N,GND*%
X153000000Y-125810000D03*
D15*
%TO.P,U2,2,VCC_2*%
%TO.N,+5V*%
X153000000Y-123270000D03*
%TO.P,U2,3,SCL_3*%
%TO.N,Net-(U1-PA9_A5_D5_SCL)*%
X153000000Y-120730000D03*
%TO.P,U2,4,SDA_4*%
%TO.N,Net-(U1-PA8_A4_D4_SDA)*%
X153000000Y-118190000D03*
%TD*%
D16*
%TO.P,U1,1,PA02_A0_D0_1*%
%TO.N,Net-(U1-PA02_A0_D0)*%
X179500000Y-85300000D03*
D17*
%TO.P,U1,2,PA4_A1_D1_2*%
%TO.N,Net-(U1-PA4_A1_D1)*%
X179500000Y-87840000D03*
%TO.P,U1,3,PA10_A2_D2_3*%
%TO.N,Net-(U1-PA10_A2_D2)*%
X179500000Y-90380000D03*
%TO.P,U1,4,PA11_A3_D3_4*%
%TO.N,Net-(U1-PA11_A3_D3)*%
X179500000Y-92920000D03*
%TO.P,U1,5,PA8_A4_D4_SDA_5*%
%TO.N,Net-(U1-PA8_A4_D4_SDA)*%
X179500000Y-95460000D03*
%TO.P,U1,6,PA9_A5_D5_SCL_6*%
%TO.N,Net-(U1-PA9_A5_D5_SCL)*%
X179500000Y-98000000D03*
%TO.P,U1,7,PB08_A6_D6_TX_7*%
%TO.N,Net-(D1-DIN)*%
X179500000Y-100540000D03*
%TO.P,U1,8,PB09_A7_D7_RX_8*%
%TO.N,Net-(U1-PB09_A7_D7_RX)*%
X162250000Y-100540000D03*
%TO.P,U1,9,PA7_A8_D8_SCK_9*%
%TO.N,Net-(U1-PA7_A8_D8_SCK)*%
X162250000Y-98000000D03*
%TO.P,U1,10,PA5_A9_D9_MISO_10*%
%TO.N,Net-(U1-PA5_A9_D9_MISO)*%
X162250000Y-95460000D03*
D18*
%TO.P,U1,11,PA6_A10_D10_MOSI_11*%
%TO.N,Net-(U1-PA6_A10_D10_MOSI)*%
X162250000Y-92920000D03*
%TO.P,U1,12,3V3_12*%
%TO.N,unconnected-(U1-3V3-Pad12)*%
X162250000Y-90380000D03*
%TO.P,U1,13,GND_13*%
%TO.N,GND*%
X162250000Y-87840000D03*
%TO.P,U1,14,5V_14*%
%TO.N,+5V*%
X162250000Y-85300000D03*
%TD*%
D19*
%TO.N,+5V*%
X217500000Y-63500000D03*
X151000000Y-76500000D03*
X152500000Y-74647158D03*
X211250000Y-57250000D03*
%TO.N,GND*%
X165500000Y-85500000D03*
X182500000Y-86500000D03*
X170500000Y-78500000D03*
X182500000Y-72000000D03*
X168000000Y-83000000D03*
X178969898Y-112147158D03*
%TO.N,Net-(D4-DOUT)*%
X171500000Y-118500000D03*
X176500000Y-111500000D03*
%TO.N,Net-(D11-DOUT)*%
X159000000Y-75500000D03*
X159000000Y-73500000D03*
%TD*%
%TO.N,Net-(U1-PA5_A9_D9_MISO)*%
D20*
X208000000Y-82000000D02*
X210500000Y-79500000D01*
X194970000Y-91530000D02*
X204500000Y-82000000D01*
X204500000Y-82000000D02*
X208000000Y-82000000D01*
X172500000Y-95500000D02*
X176470000Y-91530000D01*
X163290000Y-95500000D02*
X172500000Y-95500000D01*
X163250000Y-95460000D02*
X163290000Y-95500000D01*
X176470000Y-91530000D02*
X194970000Y-91530000D01*
%TO.N,+5V*%
X152500000Y-75000000D02*
X152500000Y-74647158D01*
X217500000Y-63500000D02*
X211500000Y-57500000D01*
X211500000Y-57500000D02*
X211250000Y-57250000D01*
X151000000Y-76500000D02*
X152500000Y-75000000D01*
%TO.N,GND*%
X182000000Y-78000000D02*
X182500000Y-77500000D01*
X163250000Y-87840000D02*
X165500000Y-85590000D01*
X182500000Y-78500000D02*
X182500000Y-77500000D01*
X208000000Y-67500000D02*
X208000000Y-79500000D01*
X170500000Y-80500000D02*
X170500000Y-78500000D01*
X168000000Y-83000000D02*
X170500000Y-80500000D01*
X165500000Y-85590000D02*
X165500000Y-85500000D01*
X182500000Y-86500000D02*
X182500000Y-78500000D01*
X182000000Y-78000000D02*
X182500000Y-78500000D01*
X205500000Y-65000000D02*
X208000000Y-67500000D01*
X170500000Y-80500000D02*
X179500000Y-80500000D01*
X168190000Y-125810000D02*
X153000000Y-125810000D01*
X178969898Y-112147158D02*
X178969898Y-115030102D01*
X179500000Y-80500000D02*
X182000000Y-78000000D01*
X182500000Y-77500000D02*
X182500000Y-72000000D01*
X178969898Y-115030102D02*
X168190000Y-125810000D01*
%TO.N,Net-(D4-DOUT)*%
X171500000Y-118500000D02*
X173500000Y-118500000D01*
X176500000Y-115500000D02*
X176500000Y-111500000D01*
X173500000Y-118500000D02*
X176500000Y-115500000D01*
%TO.N,Net-(U1-PA6_A10_D10_MOSI)*%
X170580000Y-92920000D02*
X163250000Y-92920000D01*
X205500000Y-79500000D02*
X195770000Y-89230000D01*
X174270000Y-89230000D02*
X170580000Y-92920000D01*
X195770000Y-89230000D02*
X174270000Y-89230000D01*
%TO.N,Net-(U1-PA11_A3_D3)*%
X196540000Y-95420000D02*
X194040000Y-92920000D01*
X194040000Y-92920000D02*
X178500000Y-92920000D01*
%TO.N,Net-(D11-DOUT)*%
X158500000Y-75000000D02*
X158500000Y-74000000D01*
X158500000Y-74000000D02*
X159000000Y-73500000D01*
X159000000Y-75500000D02*
X158500000Y-75000000D01*
%TO.N,Net-(U1-PB09_A7_D7_RX)*%
X150940101Y-99300000D02*
X134400000Y-82759899D01*
X163250000Y-100540000D02*
X162010000Y-99300000D01*
X134400000Y-82759899D02*
X134400000Y-79500000D01*
X162010000Y-99300000D02*
X150940101Y-99300000D01*
%TO.N,Net-(U1-PA4_A1_D1)*%
X178500000Y-87840000D02*
X174810000Y-84150000D01*
X174810000Y-84150000D02*
X153550000Y-84150000D01*
X153550000Y-84150000D02*
X134400000Y-65000000D01*
%TO.N,Net-(U1-PA10_A2_D2)*%
X175587157Y-90380000D02*
X178500000Y-90380000D01*
X149040000Y-95420000D02*
X150150000Y-94310000D01*
X150150000Y-94310000D02*
X171657157Y-94310000D01*
X171657157Y-94310000D02*
X175587157Y-90380000D01*
%TO.N,Net-(U1-PA9_A5_D5_SCL)*%
X175730000Y-98000000D02*
X178500000Y-98000000D01*
X153000000Y-120730000D02*
X175730000Y-98000000D01*
%TO.N,Net-(U1-PA8_A4_D4_SDA)*%
X175730000Y-95460000D02*
X178500000Y-95460000D01*
X153000000Y-118190000D02*
X175730000Y-95460000D01*
%TD*%
M02*
