%TF.GenerationSoftware,KiCad,Pcbnew,10.0.4*%
%TF.CreationDate,2026-07-16T12:21:03+02:00*%
%TF.ProjectId,pcb1,70636231-2e6b-4696-9361-645f70636258,rev?*%
%TF.SameCoordinates,Original*%
%TF.FileFunction,Soldermask,Top*%
%TF.FilePolarity,Negative*%
%FSLAX46Y46*%
G04 Gerber Fmt 4.6, Leading zero omitted, Abs format (unit mm)*
G04 Created by KiCad (PCBNEW 10.0.4) date 2026-07-16 12:21:03*
%MOMM*%
%LPD*%
G01*
G04 APERTURE LIST*
G04 Aperture macros list*
%AMRoundRect*
0 Rectangle with rounded corners*
0 $1 Rounding radius*
0 $2 $3 $4 $5 $6 $7 $8 $9 X,Y pos of 4 corners*
0 Add a 4 corners polygon primitive as box body*
4,1,4,$2,$3,$4,$5,$6,$7,$8,$9,$2,$3,0*
0 Add four circle primitives for the rounded corners*
1,1,$1+$1,$2,$3*
1,1,$1+$1,$4,$5*
1,1,$1+$1,$6,$7*
1,1,$1+$1,$8,$9*
0 Add four rect primitives between the rounded corners*
20,1,$1+$1,$2,$3,$4,$5,0*
20,1,$1+$1,$4,$5,$6,$7,0*
20,1,$1+$1,$6,$7,$8,$9,0*
20,1,$1+$1,$8,$9,$2,$3,0*%
G04 Aperture macros list end*
%ADD10R,2.000000X2.000000*%
%ADD11C,2.000000*%
%ADD12R,2.000000X3.200000*%
%ADD13C,1.700000*%
%ADD14C,4.000000*%
%ADD15C,2.200000*%
%ADD16RoundRect,0.170000X0.680000X-0.680000X0.680000X0.680000X-0.680000X0.680000X-0.680000X-0.680000X0*%
%ADD17R,3.500000X1.700000*%
%ADD18O,3.600000X1.700000*%
%ADD19O,3.700000X1.700000*%
G04 APERTURE END LIST*
D10*
%TO.C,SW6*%
X205500000Y-79500000D03*
D11*
X210500000Y-79500000D03*
X208000000Y-79500000D03*
D12*
X202400000Y-72000000D03*
X213600000Y-72000000D03*
D11*
X210500000Y-65000000D03*
X205500000Y-65000000D03*
%TD*%
D13*
%TO.C,SW2*%
X188920000Y-100500000D03*
D14*
X194000000Y-100500000D03*
D13*
X199080000Y-100500000D03*
D15*
X196540000Y-95420000D03*
X190190000Y-97960000D03*
%TD*%
D10*
%TO.C,SW7*%
X129400000Y-79500000D03*
D11*
X134400000Y-79500000D03*
X131900000Y-79500000D03*
D12*
X126300000Y-72000000D03*
X137500000Y-72000000D03*
D11*
X134400000Y-65000000D03*
X129400000Y-65000000D03*
%TD*%
D13*
%TO.C,SW1*%
X141420000Y-100500000D03*
D14*
X146500000Y-100500000D03*
D13*
X151580000Y-100500000D03*
D15*
X149040000Y-95420000D03*
X142690000Y-97960000D03*
%TD*%
D16*
%TO.C,U2*%
X153000000Y-125810000D03*
D13*
X153000000Y-123270000D03*
X153000000Y-120730000D03*
X153000000Y-118190000D03*
%TD*%
D17*
%TO.C,U1*%
X179500000Y-85300000D03*
D18*
X179500000Y-87840000D03*
X179500000Y-90380000D03*
X179500000Y-92920000D03*
X179500000Y-95460000D03*
X179500000Y-98000000D03*
X179500000Y-100540000D03*
X162250000Y-100540000D03*
X162250000Y-98000000D03*
X162250000Y-95460000D03*
D19*
X162250000Y-92920000D03*
X162250000Y-90380000D03*
X162250000Y-87840000D03*
X162250000Y-85300000D03*
%TD*%
M02*
