%TF.GenerationSoftware,KiCad,Pcbnew,10.0.4*%
%TF.CreationDate,2026-07-16T12:21:03+02:00*%
%TF.ProjectId,pcb1,70636231-2e6b-4696-9361-645f70636258,rev?*%
%TF.SameCoordinates,Original*%
%TF.FileFunction,Legend,Top*%
%TF.FilePolarity,Positive*%
%FSLAX46Y46*%
G04 Gerber Fmt 4.6, Leading zero omitted, Abs format (unit mm)*
G04 Created by KiCad (PCBNEW 10.0.4) date 2026-07-16 12:21:03*
%MOMM*%
%LPD*%
G01*
G04 APERTURE LIST*
%ADD10C,0.200000*%
%ADD11C,0.150000*%
%ADD12C,0.120000*%
G04 APERTURE END LIST*
D10*
X206661905Y-89352219D02*
X206661905Y-88352219D01*
X206661905Y-88352219D02*
X206900000Y-88352219D01*
X206900000Y-88352219D02*
X207042857Y-88399838D01*
X207042857Y-88399838D02*
X207138095Y-88495076D01*
X207138095Y-88495076D02*
X207185714Y-88590314D01*
X207185714Y-88590314D02*
X207233333Y-88780790D01*
X207233333Y-88780790D02*
X207233333Y-88923647D01*
X207233333Y-88923647D02*
X207185714Y-89114123D01*
X207185714Y-89114123D02*
X207138095Y-89209361D01*
X207138095Y-89209361D02*
X207042857Y-89304600D01*
X207042857Y-89304600D02*
X206900000Y-89352219D01*
X206900000Y-89352219D02*
X206661905Y-89352219D01*
X207566667Y-88352219D02*
X208233333Y-88352219D01*
X208233333Y-88352219D02*
X207804762Y-89352219D01*
X143361905Y-115352219D02*
X143361905Y-114352219D01*
X143361905Y-114352219D02*
X143600000Y-114352219D01*
X143600000Y-114352219D02*
X143742857Y-114399838D01*
X143742857Y-114399838D02*
X143838095Y-114495076D01*
X143838095Y-114495076D02*
X143885714Y-114590314D01*
X143885714Y-114590314D02*
X143933333Y-114780790D01*
X143933333Y-114780790D02*
X143933333Y-114923647D01*
X143933333Y-114923647D02*
X143885714Y-115114123D01*
X143885714Y-115114123D02*
X143838095Y-115209361D01*
X143838095Y-115209361D02*
X143742857Y-115304600D01*
X143742857Y-115304600D02*
X143600000Y-115352219D01*
X143600000Y-115352219D02*
X143361905Y-115352219D01*
X144790476Y-114685552D02*
X144790476Y-115352219D01*
X144552381Y-114304600D02*
X144314286Y-115018885D01*
X144314286Y-115018885D02*
X144933333Y-115018885D01*
D11*
X202907200Y-80833332D02*
X202954819Y-80690475D01*
X202954819Y-80690475D02*
X202954819Y-80452380D01*
X202954819Y-80452380D02*
X202907200Y-80357142D01*
X202907200Y-80357142D02*
X202859580Y-80309523D01*
X202859580Y-80309523D02*
X202764342Y-80261904D01*
X202764342Y-80261904D02*
X202669104Y-80261904D01*
X202669104Y-80261904D02*
X202573866Y-80309523D01*
X202573866Y-80309523D02*
X202526247Y-80357142D01*
X202526247Y-80357142D02*
X202478628Y-80452380D01*
X202478628Y-80452380D02*
X202431009Y-80642856D01*
X202431009Y-80642856D02*
X202383390Y-80738094D01*
X202383390Y-80738094D02*
X202335771Y-80785713D01*
X202335771Y-80785713D02*
X202240533Y-80833332D01*
X202240533Y-80833332D02*
X202145295Y-80833332D01*
X202145295Y-80833332D02*
X202050057Y-80785713D01*
X202050057Y-80785713D02*
X202002438Y-80738094D01*
X202002438Y-80738094D02*
X201954819Y-80642856D01*
X201954819Y-80642856D02*
X201954819Y-80404761D01*
X201954819Y-80404761D02*
X202002438Y-80261904D01*
X201954819Y-79928570D02*
X202954819Y-79690475D01*
X202954819Y-79690475D02*
X202240533Y-79499999D01*
X202240533Y-79499999D02*
X202954819Y-79309523D01*
X202954819Y-79309523D02*
X201954819Y-79071428D01*
X201954819Y-78261904D02*
X201954819Y-78452380D01*
X201954819Y-78452380D02*
X202002438Y-78547618D01*
X202002438Y-78547618D02*
X202050057Y-78595237D01*
X202050057Y-78595237D02*
X202192914Y-78690475D01*
X202192914Y-78690475D02*
X202383390Y-78738094D01*
X202383390Y-78738094D02*
X202764342Y-78738094D01*
X202764342Y-78738094D02*
X202859580Y-78690475D01*
X202859580Y-78690475D02*
X202907200Y-78642856D01*
X202907200Y-78642856D02*
X202954819Y-78547618D01*
X202954819Y-78547618D02*
X202954819Y-78357142D01*
X202954819Y-78357142D02*
X202907200Y-78261904D01*
X202907200Y-78261904D02*
X202859580Y-78214285D01*
X202859580Y-78214285D02*
X202764342Y-78166666D01*
X202764342Y-78166666D02*
X202526247Y-78166666D01*
X202526247Y-78166666D02*
X202431009Y-78214285D01*
X202431009Y-78214285D02*
X202383390Y-78261904D01*
X202383390Y-78261904D02*
X202335771Y-78357142D01*
X202335771Y-78357142D02*
X202335771Y-78547618D01*
X202335771Y-78547618D02*
X202383390Y-78642856D01*
X202383390Y-78642856D02*
X202431009Y-78690475D01*
X202431009Y-78690475D02*
X202526247Y-78738094D01*
D10*
X131861905Y-83352219D02*
X131861905Y-82352219D01*
X131861905Y-82352219D02*
X132100000Y-82352219D01*
X132100000Y-82352219D02*
X132242857Y-82399838D01*
X132242857Y-82399838D02*
X132338095Y-82495076D01*
X132338095Y-82495076D02*
X132385714Y-82590314D01*
X132385714Y-82590314D02*
X132433333Y-82780790D01*
X132433333Y-82780790D02*
X132433333Y-82923647D01*
X132433333Y-82923647D02*
X132385714Y-83114123D01*
X132385714Y-83114123D02*
X132338095Y-83209361D01*
X132338095Y-83209361D02*
X132242857Y-83304600D01*
X132242857Y-83304600D02*
X132100000Y-83352219D01*
X132100000Y-83352219D02*
X131861905Y-83352219D01*
X132766667Y-82352219D02*
X133385714Y-82352219D01*
X133385714Y-82352219D02*
X133052381Y-82733171D01*
X133052381Y-82733171D02*
X133195238Y-82733171D01*
X133195238Y-82733171D02*
X133290476Y-82780790D01*
X133290476Y-82780790D02*
X133338095Y-82828409D01*
X133338095Y-82828409D02*
X133385714Y-82923647D01*
X133385714Y-82923647D02*
X133385714Y-83161742D01*
X133385714Y-83161742D02*
X133338095Y-83256980D01*
X133338095Y-83256980D02*
X133290476Y-83304600D01*
X133290476Y-83304600D02*
X133195238Y-83352219D01*
X133195238Y-83352219D02*
X132909524Y-83352219D01*
X132909524Y-83352219D02*
X132814286Y-83304600D01*
X132814286Y-83304600D02*
X132766667Y-83256980D01*
D11*
X192666667Y-93033200D02*
X192809524Y-93080819D01*
X192809524Y-93080819D02*
X193047619Y-93080819D01*
X193047619Y-93080819D02*
X193142857Y-93033200D01*
X193142857Y-93033200D02*
X193190476Y-92985580D01*
X193190476Y-92985580D02*
X193238095Y-92890342D01*
X193238095Y-92890342D02*
X193238095Y-92795104D01*
X193238095Y-92795104D02*
X193190476Y-92699866D01*
X193190476Y-92699866D02*
X193142857Y-92652247D01*
X193142857Y-92652247D02*
X193047619Y-92604628D01*
X193047619Y-92604628D02*
X192857143Y-92557009D01*
X192857143Y-92557009D02*
X192761905Y-92509390D01*
X192761905Y-92509390D02*
X192714286Y-92461771D01*
X192714286Y-92461771D02*
X192666667Y-92366533D01*
X192666667Y-92366533D02*
X192666667Y-92271295D01*
X192666667Y-92271295D02*
X192714286Y-92176057D01*
X192714286Y-92176057D02*
X192761905Y-92128438D01*
X192761905Y-92128438D02*
X192857143Y-92080819D01*
X192857143Y-92080819D02*
X193095238Y-92080819D01*
X193095238Y-92080819D02*
X193238095Y-92128438D01*
X193571429Y-92080819D02*
X193809524Y-93080819D01*
X193809524Y-93080819D02*
X194000000Y-92366533D01*
X194000000Y-92366533D02*
X194190476Y-93080819D01*
X194190476Y-93080819D02*
X194428572Y-92080819D01*
X194761905Y-92176057D02*
X194809524Y-92128438D01*
X194809524Y-92128438D02*
X194904762Y-92080819D01*
X194904762Y-92080819D02*
X195142857Y-92080819D01*
X195142857Y-92080819D02*
X195238095Y-92128438D01*
X195238095Y-92128438D02*
X195285714Y-92176057D01*
X195285714Y-92176057D02*
X195333333Y-92271295D01*
X195333333Y-92271295D02*
X195333333Y-92366533D01*
X195333333Y-92366533D02*
X195285714Y-92509390D01*
X195285714Y-92509390D02*
X194714286Y-93080819D01*
X194714286Y-93080819D02*
X195333333Y-93080819D01*
D10*
X197361905Y-115352219D02*
X197361905Y-114352219D01*
X197361905Y-114352219D02*
X197600000Y-114352219D01*
X197600000Y-114352219D02*
X197742857Y-114399838D01*
X197742857Y-114399838D02*
X197838095Y-114495076D01*
X197838095Y-114495076D02*
X197885714Y-114590314D01*
X197885714Y-114590314D02*
X197933333Y-114780790D01*
X197933333Y-114780790D02*
X197933333Y-114923647D01*
X197933333Y-114923647D02*
X197885714Y-115114123D01*
X197885714Y-115114123D02*
X197838095Y-115209361D01*
X197838095Y-115209361D02*
X197742857Y-115304600D01*
X197742857Y-115304600D02*
X197600000Y-115352219D01*
X197600000Y-115352219D02*
X197361905Y-115352219D01*
X198790476Y-114352219D02*
X198600000Y-114352219D01*
X198600000Y-114352219D02*
X198504762Y-114399838D01*
X198504762Y-114399838D02*
X198457143Y-114447457D01*
X198457143Y-114447457D02*
X198361905Y-114590314D01*
X198361905Y-114590314D02*
X198314286Y-114780790D01*
X198314286Y-114780790D02*
X198314286Y-115161742D01*
X198314286Y-115161742D02*
X198361905Y-115256980D01*
X198361905Y-115256980D02*
X198409524Y-115304600D01*
X198409524Y-115304600D02*
X198504762Y-115352219D01*
X198504762Y-115352219D02*
X198695238Y-115352219D01*
X198695238Y-115352219D02*
X198790476Y-115304600D01*
X198790476Y-115304600D02*
X198838095Y-115256980D01*
X198838095Y-115256980D02*
X198885714Y-115161742D01*
X198885714Y-115161742D02*
X198885714Y-114923647D01*
X198885714Y-114923647D02*
X198838095Y-114828409D01*
X198838095Y-114828409D02*
X198790476Y-114780790D01*
X198790476Y-114780790D02*
X198695238Y-114733171D01*
X198695238Y-114733171D02*
X198504762Y-114733171D01*
X198504762Y-114733171D02*
X198409524Y-114780790D01*
X198409524Y-114780790D02*
X198361905Y-114828409D01*
X198361905Y-114828409D02*
X198314286Y-114923647D01*
X163285713Y-72852219D02*
X163285713Y-71852219D01*
X163285713Y-71852219D02*
X163523808Y-71852219D01*
X163523808Y-71852219D02*
X163666665Y-71899838D01*
X163666665Y-71899838D02*
X163761903Y-71995076D01*
X163761903Y-71995076D02*
X163809522Y-72090314D01*
X163809522Y-72090314D02*
X163857141Y-72280790D01*
X163857141Y-72280790D02*
X163857141Y-72423647D01*
X163857141Y-72423647D02*
X163809522Y-72614123D01*
X163809522Y-72614123D02*
X163761903Y-72709361D01*
X163761903Y-72709361D02*
X163666665Y-72804600D01*
X163666665Y-72804600D02*
X163523808Y-72852219D01*
X163523808Y-72852219D02*
X163285713Y-72852219D01*
X164809522Y-72852219D02*
X164238094Y-72852219D01*
X164523808Y-72852219D02*
X164523808Y-71852219D01*
X164523808Y-71852219D02*
X164428570Y-71995076D01*
X164428570Y-71995076D02*
X164333332Y-72090314D01*
X164333332Y-72090314D02*
X164238094Y-72137933D01*
X165761903Y-72852219D02*
X165190475Y-72852219D01*
X165476189Y-72852219D02*
X165476189Y-71852219D01*
X165476189Y-71852219D02*
X165380951Y-71995076D01*
X165380951Y-71995076D02*
X165285713Y-72090314D01*
X165285713Y-72090314D02*
X165190475Y-72137933D01*
X213205061Y-54005316D02*
X212205061Y-54005316D01*
X212205061Y-54005316D02*
X212205061Y-53767221D01*
X212205061Y-53767221D02*
X212252680Y-53624364D01*
X212252680Y-53624364D02*
X212347918Y-53529126D01*
X212347918Y-53529126D02*
X212443156Y-53481507D01*
X212443156Y-53481507D02*
X212633632Y-53433888D01*
X212633632Y-53433888D02*
X212776489Y-53433888D01*
X212776489Y-53433888D02*
X212966965Y-53481507D01*
X212966965Y-53481507D02*
X213062203Y-53529126D01*
X213062203Y-53529126D02*
X213157442Y-53624364D01*
X213157442Y-53624364D02*
X213205061Y-53767221D01*
X213205061Y-53767221D02*
X213205061Y-54005316D01*
X213205061Y-52957697D02*
X213205061Y-52767221D01*
X213205061Y-52767221D02*
X213157442Y-52671983D01*
X213157442Y-52671983D02*
X213109822Y-52624364D01*
X213109822Y-52624364D02*
X212966965Y-52529126D01*
X212966965Y-52529126D02*
X212776489Y-52481507D01*
X212776489Y-52481507D02*
X212395537Y-52481507D01*
X212395537Y-52481507D02*
X212300299Y-52529126D01*
X212300299Y-52529126D02*
X212252680Y-52576745D01*
X212252680Y-52576745D02*
X212205061Y-52671983D01*
X212205061Y-52671983D02*
X212205061Y-52862459D01*
X212205061Y-52862459D02*
X212252680Y-52957697D01*
X212252680Y-52957697D02*
X212300299Y-53005316D01*
X212300299Y-53005316D02*
X212395537Y-53052935D01*
X212395537Y-53052935D02*
X212633632Y-53052935D01*
X212633632Y-53052935D02*
X212728870Y-53005316D01*
X212728870Y-53005316D02*
X212776489Y-52957697D01*
X212776489Y-52957697D02*
X212824108Y-52862459D01*
X212824108Y-52862459D02*
X212824108Y-52671983D01*
X212824108Y-52671983D02*
X212776489Y-52576745D01*
X212776489Y-52576745D02*
X212728870Y-52529126D01*
X212728870Y-52529126D02*
X212633632Y-52481507D01*
X220352219Y-73838094D02*
X219352219Y-73838094D01*
X219352219Y-73838094D02*
X219352219Y-73599999D01*
X219352219Y-73599999D02*
X219399838Y-73457142D01*
X219399838Y-73457142D02*
X219495076Y-73361904D01*
X219495076Y-73361904D02*
X219590314Y-73314285D01*
X219590314Y-73314285D02*
X219780790Y-73266666D01*
X219780790Y-73266666D02*
X219923647Y-73266666D01*
X219923647Y-73266666D02*
X220114123Y-73314285D01*
X220114123Y-73314285D02*
X220209361Y-73361904D01*
X220209361Y-73361904D02*
X220304600Y-73457142D01*
X220304600Y-73457142D02*
X220352219Y-73599999D01*
X220352219Y-73599999D02*
X220352219Y-73838094D01*
X219780790Y-72695237D02*
X219733171Y-72790475D01*
X219733171Y-72790475D02*
X219685552Y-72838094D01*
X219685552Y-72838094D02*
X219590314Y-72885713D01*
X219590314Y-72885713D02*
X219542695Y-72885713D01*
X219542695Y-72885713D02*
X219447457Y-72838094D01*
X219447457Y-72838094D02*
X219399838Y-72790475D01*
X219399838Y-72790475D02*
X219352219Y-72695237D01*
X219352219Y-72695237D02*
X219352219Y-72504761D01*
X219352219Y-72504761D02*
X219399838Y-72409523D01*
X219399838Y-72409523D02*
X219447457Y-72361904D01*
X219447457Y-72361904D02*
X219542695Y-72314285D01*
X219542695Y-72314285D02*
X219590314Y-72314285D01*
X219590314Y-72314285D02*
X219685552Y-72361904D01*
X219685552Y-72361904D02*
X219733171Y-72409523D01*
X219733171Y-72409523D02*
X219780790Y-72504761D01*
X219780790Y-72504761D02*
X219780790Y-72695237D01*
X219780790Y-72695237D02*
X219828409Y-72790475D01*
X219828409Y-72790475D02*
X219876028Y-72838094D01*
X219876028Y-72838094D02*
X219971266Y-72885713D01*
X219971266Y-72885713D02*
X220161742Y-72885713D01*
X220161742Y-72885713D02*
X220256980Y-72838094D01*
X220256980Y-72838094D02*
X220304600Y-72790475D01*
X220304600Y-72790475D02*
X220352219Y-72695237D01*
X220352219Y-72695237D02*
X220352219Y-72504761D01*
X220352219Y-72504761D02*
X220304600Y-72409523D01*
X220304600Y-72409523D02*
X220256980Y-72361904D01*
X220256980Y-72361904D02*
X220161742Y-72314285D01*
X220161742Y-72314285D02*
X219971266Y-72314285D01*
X219971266Y-72314285D02*
X219876028Y-72361904D01*
X219876028Y-72361904D02*
X219828409Y-72409523D01*
X219828409Y-72409523D02*
X219780790Y-72504761D01*
D11*
X125107200Y-78033332D02*
X125154819Y-77890475D01*
X125154819Y-77890475D02*
X125154819Y-77652380D01*
X125154819Y-77652380D02*
X125107200Y-77557142D01*
X125107200Y-77557142D02*
X125059580Y-77509523D01*
X125059580Y-77509523D02*
X124964342Y-77461904D01*
X124964342Y-77461904D02*
X124869104Y-77461904D01*
X124869104Y-77461904D02*
X124773866Y-77509523D01*
X124773866Y-77509523D02*
X124726247Y-77557142D01*
X124726247Y-77557142D02*
X124678628Y-77652380D01*
X124678628Y-77652380D02*
X124631009Y-77842856D01*
X124631009Y-77842856D02*
X124583390Y-77938094D01*
X124583390Y-77938094D02*
X124535771Y-77985713D01*
X124535771Y-77985713D02*
X124440533Y-78033332D01*
X124440533Y-78033332D02*
X124345295Y-78033332D01*
X124345295Y-78033332D02*
X124250057Y-77985713D01*
X124250057Y-77985713D02*
X124202438Y-77938094D01*
X124202438Y-77938094D02*
X124154819Y-77842856D01*
X124154819Y-77842856D02*
X124154819Y-77604761D01*
X124154819Y-77604761D02*
X124202438Y-77461904D01*
X124154819Y-77128570D02*
X125154819Y-76890475D01*
X125154819Y-76890475D02*
X124440533Y-76699999D01*
X124440533Y-76699999D02*
X125154819Y-76509523D01*
X125154819Y-76509523D02*
X124154819Y-76271428D01*
X124154819Y-75985713D02*
X124154819Y-75319047D01*
X124154819Y-75319047D02*
X125154819Y-75747618D01*
D10*
X172858609Y-58268179D02*
X172858609Y-57268179D01*
X172858609Y-57268179D02*
X173096704Y-57268179D01*
X173096704Y-57268179D02*
X173239561Y-57315798D01*
X173239561Y-57315798D02*
X173334799Y-57411036D01*
X173334799Y-57411036D02*
X173382418Y-57506274D01*
X173382418Y-57506274D02*
X173430037Y-57696750D01*
X173430037Y-57696750D02*
X173430037Y-57839607D01*
X173430037Y-57839607D02*
X173382418Y-58030083D01*
X173382418Y-58030083D02*
X173334799Y-58125321D01*
X173334799Y-58125321D02*
X173239561Y-58220560D01*
X173239561Y-58220560D02*
X173096704Y-58268179D01*
X173096704Y-58268179D02*
X172858609Y-58268179D01*
X174382418Y-58268179D02*
X173810990Y-58268179D01*
X174096704Y-58268179D02*
X174096704Y-57268179D01*
X174096704Y-57268179D02*
X174001466Y-57411036D01*
X174001466Y-57411036D02*
X173906228Y-57506274D01*
X173906228Y-57506274D02*
X173810990Y-57553893D01*
X174763371Y-57363417D02*
X174810990Y-57315798D01*
X174810990Y-57315798D02*
X174906228Y-57268179D01*
X174906228Y-57268179D02*
X175144323Y-57268179D01*
X175144323Y-57268179D02*
X175239561Y-57315798D01*
X175239561Y-57315798D02*
X175287180Y-57363417D01*
X175287180Y-57363417D02*
X175334799Y-57458655D01*
X175334799Y-57458655D02*
X175334799Y-57553893D01*
X175334799Y-57553893D02*
X175287180Y-57696750D01*
X175287180Y-57696750D02*
X174715752Y-58268179D01*
X174715752Y-58268179D02*
X175334799Y-58268179D01*
D11*
X145166667Y-93033200D02*
X145309524Y-93080819D01*
X145309524Y-93080819D02*
X145547619Y-93080819D01*
X145547619Y-93080819D02*
X145642857Y-93033200D01*
X145642857Y-93033200D02*
X145690476Y-92985580D01*
X145690476Y-92985580D02*
X145738095Y-92890342D01*
X145738095Y-92890342D02*
X145738095Y-92795104D01*
X145738095Y-92795104D02*
X145690476Y-92699866D01*
X145690476Y-92699866D02*
X145642857Y-92652247D01*
X145642857Y-92652247D02*
X145547619Y-92604628D01*
X145547619Y-92604628D02*
X145357143Y-92557009D01*
X145357143Y-92557009D02*
X145261905Y-92509390D01*
X145261905Y-92509390D02*
X145214286Y-92461771D01*
X145214286Y-92461771D02*
X145166667Y-92366533D01*
X145166667Y-92366533D02*
X145166667Y-92271295D01*
X145166667Y-92271295D02*
X145214286Y-92176057D01*
X145214286Y-92176057D02*
X145261905Y-92128438D01*
X145261905Y-92128438D02*
X145357143Y-92080819D01*
X145357143Y-92080819D02*
X145595238Y-92080819D01*
X145595238Y-92080819D02*
X145738095Y-92128438D01*
X146071429Y-92080819D02*
X146309524Y-93080819D01*
X146309524Y-93080819D02*
X146500000Y-92366533D01*
X146500000Y-92366533D02*
X146690476Y-93080819D01*
X146690476Y-93080819D02*
X146928572Y-92080819D01*
X147833333Y-93080819D02*
X147261905Y-93080819D01*
X147547619Y-93080819D02*
X147547619Y-92080819D01*
X147547619Y-92080819D02*
X147452381Y-92223676D01*
X147452381Y-92223676D02*
X147357143Y-92318914D01*
X147357143Y-92318914D02*
X147261905Y-92366533D01*
D10*
X120352219Y-72138094D02*
X119352219Y-72138094D01*
X119352219Y-72138094D02*
X119352219Y-71899999D01*
X119352219Y-71899999D02*
X119399838Y-71757142D01*
X119399838Y-71757142D02*
X119495076Y-71661904D01*
X119495076Y-71661904D02*
X119590314Y-71614285D01*
X119590314Y-71614285D02*
X119780790Y-71566666D01*
X119780790Y-71566666D02*
X119923647Y-71566666D01*
X119923647Y-71566666D02*
X120114123Y-71614285D01*
X120114123Y-71614285D02*
X120209361Y-71661904D01*
X120209361Y-71661904D02*
X120304600Y-71757142D01*
X120304600Y-71757142D02*
X120352219Y-71899999D01*
X120352219Y-71899999D02*
X120352219Y-72138094D01*
X119447457Y-71185713D02*
X119399838Y-71138094D01*
X119399838Y-71138094D02*
X119352219Y-71042856D01*
X119352219Y-71042856D02*
X119352219Y-70804761D01*
X119352219Y-70804761D02*
X119399838Y-70709523D01*
X119399838Y-70709523D02*
X119447457Y-70661904D01*
X119447457Y-70661904D02*
X119542695Y-70614285D01*
X119542695Y-70614285D02*
X119637933Y-70614285D01*
X119637933Y-70614285D02*
X119780790Y-70661904D01*
X119780790Y-70661904D02*
X120352219Y-71233332D01*
X120352219Y-71233332D02*
X120352219Y-70614285D01*
X170861905Y-108852219D02*
X170861905Y-107852219D01*
X170861905Y-107852219D02*
X171100000Y-107852219D01*
X171100000Y-107852219D02*
X171242857Y-107899838D01*
X171242857Y-107899838D02*
X171338095Y-107995076D01*
X171338095Y-107995076D02*
X171385714Y-108090314D01*
X171385714Y-108090314D02*
X171433333Y-108280790D01*
X171433333Y-108280790D02*
X171433333Y-108423647D01*
X171433333Y-108423647D02*
X171385714Y-108614123D01*
X171385714Y-108614123D02*
X171338095Y-108709361D01*
X171338095Y-108709361D02*
X171242857Y-108804600D01*
X171242857Y-108804600D02*
X171100000Y-108852219D01*
X171100000Y-108852219D02*
X170861905Y-108852219D01*
X172338095Y-107852219D02*
X171861905Y-107852219D01*
X171861905Y-107852219D02*
X171814286Y-108328409D01*
X171814286Y-108328409D02*
X171861905Y-108280790D01*
X171861905Y-108280790D02*
X171957143Y-108233171D01*
X171957143Y-108233171D02*
X172195238Y-108233171D01*
X172195238Y-108233171D02*
X172290476Y-108280790D01*
X172290476Y-108280790D02*
X172338095Y-108328409D01*
X172338095Y-108328409D02*
X172385714Y-108423647D01*
X172385714Y-108423647D02*
X172385714Y-108661742D01*
X172385714Y-108661742D02*
X172338095Y-108756980D01*
X172338095Y-108756980D02*
X172290476Y-108804600D01*
X172290476Y-108804600D02*
X172195238Y-108852219D01*
X172195238Y-108852219D02*
X171957143Y-108852219D01*
X171957143Y-108852219D02*
X171861905Y-108804600D01*
X171861905Y-108804600D02*
X171814286Y-108756980D01*
X120852219Y-54005316D02*
X119852219Y-54005316D01*
X119852219Y-54005316D02*
X119852219Y-53767221D01*
X119852219Y-53767221D02*
X119899838Y-53624364D01*
X119899838Y-53624364D02*
X119995076Y-53529126D01*
X119995076Y-53529126D02*
X120090314Y-53481507D01*
X120090314Y-53481507D02*
X120280790Y-53433888D01*
X120280790Y-53433888D02*
X120423647Y-53433888D01*
X120423647Y-53433888D02*
X120614123Y-53481507D01*
X120614123Y-53481507D02*
X120709361Y-53529126D01*
X120709361Y-53529126D02*
X120804600Y-53624364D01*
X120804600Y-53624364D02*
X120852219Y-53767221D01*
X120852219Y-53767221D02*
X120852219Y-54005316D01*
X120852219Y-52481507D02*
X120852219Y-53052935D01*
X120852219Y-52767221D02*
X119852219Y-52767221D01*
X119852219Y-52767221D02*
X119995076Y-52862459D01*
X119995076Y-52862459D02*
X120090314Y-52957697D01*
X120090314Y-52957697D02*
X120137933Y-53052935D01*
X176885714Y-72852219D02*
X176885714Y-71852219D01*
X176885714Y-71852219D02*
X177123809Y-71852219D01*
X177123809Y-71852219D02*
X177266666Y-71899838D01*
X177266666Y-71899838D02*
X177361904Y-71995076D01*
X177361904Y-71995076D02*
X177409523Y-72090314D01*
X177409523Y-72090314D02*
X177457142Y-72280790D01*
X177457142Y-72280790D02*
X177457142Y-72423647D01*
X177457142Y-72423647D02*
X177409523Y-72614123D01*
X177409523Y-72614123D02*
X177361904Y-72709361D01*
X177361904Y-72709361D02*
X177266666Y-72804600D01*
X177266666Y-72804600D02*
X177123809Y-72852219D01*
X177123809Y-72852219D02*
X176885714Y-72852219D01*
X178409523Y-72852219D02*
X177838095Y-72852219D01*
X178123809Y-72852219D02*
X178123809Y-71852219D01*
X178123809Y-71852219D02*
X178028571Y-71995076D01*
X178028571Y-71995076D02*
X177933333Y-72090314D01*
X177933333Y-72090314D02*
X177838095Y-72137933D01*
X179028571Y-71852219D02*
X179123809Y-71852219D01*
X179123809Y-71852219D02*
X179219047Y-71899838D01*
X179219047Y-71899838D02*
X179266666Y-71947457D01*
X179266666Y-71947457D02*
X179314285Y-72042695D01*
X179314285Y-72042695D02*
X179361904Y-72233171D01*
X179361904Y-72233171D02*
X179361904Y-72471266D01*
X179361904Y-72471266D02*
X179314285Y-72661742D01*
X179314285Y-72661742D02*
X179266666Y-72756980D01*
X179266666Y-72756980D02*
X179219047Y-72804600D01*
X179219047Y-72804600D02*
X179123809Y-72852219D01*
X179123809Y-72852219D02*
X179028571Y-72852219D01*
X179028571Y-72852219D02*
X178933333Y-72804600D01*
X178933333Y-72804600D02*
X178885714Y-72756980D01*
X178885714Y-72756980D02*
X178838095Y-72661742D01*
X178838095Y-72661742D02*
X178790476Y-72471266D01*
X178790476Y-72471266D02*
X178790476Y-72233171D01*
X178790476Y-72233171D02*
X178838095Y-72042695D01*
X178838095Y-72042695D02*
X178885714Y-71947457D01*
X178885714Y-71947457D02*
X178933333Y-71899838D01*
X178933333Y-71899838D02*
X179028571Y-71852219D01*
D11*
X149954819Y-122571904D02*
X150764342Y-122571904D01*
X150764342Y-122571904D02*
X150859580Y-122524285D01*
X150859580Y-122524285D02*
X150907200Y-122476666D01*
X150907200Y-122476666D02*
X150954819Y-122381428D01*
X150954819Y-122381428D02*
X150954819Y-122190952D01*
X150954819Y-122190952D02*
X150907200Y-122095714D01*
X150907200Y-122095714D02*
X150859580Y-122048095D01*
X150859580Y-122048095D02*
X150764342Y-122000476D01*
X150764342Y-122000476D02*
X149954819Y-122000476D01*
X150050057Y-121571904D02*
X150002438Y-121524285D01*
X150002438Y-121524285D02*
X149954819Y-121429047D01*
X149954819Y-121429047D02*
X149954819Y-121190952D01*
X149954819Y-121190952D02*
X150002438Y-121095714D01*
X150002438Y-121095714D02*
X150050057Y-121048095D01*
X150050057Y-121048095D02*
X150145295Y-121000476D01*
X150145295Y-121000476D02*
X150240533Y-121000476D01*
X150240533Y-121000476D02*
X150383390Y-121048095D01*
X150383390Y-121048095D02*
X150954819Y-121619523D01*
X150954819Y-121619523D02*
X150954819Y-121000476D01*
%TO.C,SW6*%
D12*
X202100000Y-65900000D02*
X204500000Y-65900000D01*
X202100000Y-70000000D02*
X202100000Y-65900000D01*
X202100000Y-74000000D02*
X202100000Y-78100000D01*
X202100000Y-78100000D02*
X213900000Y-78100000D01*
X203900000Y-79200000D02*
X204200000Y-79500000D01*
X203900000Y-79800000D02*
X203900000Y-79200000D01*
X204200000Y-79500000D02*
X203900000Y-79800000D01*
X206700000Y-65900000D02*
X209300000Y-65900000D01*
X207500000Y-72000000D02*
X208500000Y-72000000D01*
X208000000Y-72500000D02*
X208000000Y-71500000D01*
X211500000Y-65900000D02*
X213900000Y-65900000D01*
X213900000Y-65900000D02*
X213900000Y-70000000D01*
X213900000Y-74000000D02*
X213900000Y-78100000D01*
X211000000Y-72000000D02*
G75*
G02*
X205000000Y-72000000I-3000000J0D01*
G01*
X205000000Y-72000000D02*
G75*
G02*
X211000000Y-72000000I3000000J0D01*
G01*
%TO.C,SW2*%
X187015000Y-93515000D02*
X200985000Y-93515000D01*
X187015000Y-107485000D02*
X187015000Y-93515000D01*
X200985000Y-93515000D02*
X200985000Y-107485000D01*
X200985000Y-107485000D02*
X187015000Y-107485000D01*
%TO.C,SW7*%
X126000000Y-65900000D02*
X128400000Y-65900000D01*
X126000000Y-70000000D02*
X126000000Y-65900000D01*
X126000000Y-74000000D02*
X126000000Y-78100000D01*
X126000000Y-78100000D02*
X137800000Y-78100000D01*
X127800000Y-79200000D02*
X128100000Y-79500000D01*
X127800000Y-79800000D02*
X127800000Y-79200000D01*
X128100000Y-79500000D02*
X127800000Y-79800000D01*
X130600000Y-65900000D02*
X133200000Y-65900000D01*
X131400000Y-72000000D02*
X132400000Y-72000000D01*
X131900000Y-72500000D02*
X131900000Y-71500000D01*
X135400000Y-65900000D02*
X137800000Y-65900000D01*
X137800000Y-65900000D02*
X137800000Y-70000000D01*
X137800000Y-74000000D02*
X137800000Y-78100000D01*
X134900000Y-72000000D02*
G75*
G02*
X128900000Y-72000000I-3000000J0D01*
G01*
X128900000Y-72000000D02*
G75*
G02*
X134900000Y-72000000I3000000J0D01*
G01*
%TO.C,SW1*%
X139515000Y-93515000D02*
X153485000Y-93515000D01*
X139515000Y-107485000D02*
X139515000Y-93515000D01*
X153485000Y-93515000D02*
X153485000Y-107485000D01*
X153485000Y-107485000D02*
X139515000Y-107485000D01*
%TO.C,U2*%
X153000000Y-127190000D02*
X154380000Y-127190000D01*
X154380000Y-125810000D02*
X154380000Y-127190000D01*
X151500000Y-116000000D02*
X189500000Y-116000000D01*
X189500000Y-128000000D01*
X151500000Y-128000000D01*
X151500000Y-116000000D01*
%TD*%
M02*
