%TF.GenerationSoftware,KiCad,Pcbnew,10.0.4*%
%TF.CreationDate,2026-08-22T19:20:03+02:00*%
%TF.ProjectId,pcb1,70636231-2e6b-4696-9361-645f70636258,rev?*%
%TF.SameCoordinates,Original*%
%TF.FileFunction,Profile,NP*%
%FSLAX46Y46*%
G04 Gerber Fmt 4.6, Leading zero omitted, Abs format (unit mm)*
G04 Created by KiCad (PCBNEW 10.0.4) date 2026-08-22 19:20:03*
%MOMM*%
%LPD*%
G01*
G04 APERTURE LIST*
%TA.AperFunction,Profile*%
%ADD10C,0.050000*%
%TD*%
%TA.AperFunction,Profile*%
%ADD11C,0.100000*%
%TD*%
G04 APERTURE END LIST*
D10*
X120500000Y-49000000D02*
X120500000Y-76500000D01*
X120500000Y-76500000D02*
X133500000Y-100000000D01*
X127500000Y-49000000D02*
X120500000Y-49000000D01*
X127500000Y-49000000D02*
X150000000Y-71500000D01*
X133500000Y-100000000D02*
X133500000Y-123000000D01*
X133500000Y-123000000D02*
X150500000Y-130500000D01*
X150000000Y-71500000D02*
X163000000Y-71000000D01*
X150500000Y-130500000D02*
X189500000Y-130500000D01*
X163000000Y-71000000D02*
X170000000Y-57000000D01*
X170000000Y-57000000D02*
X179000000Y-57000000D01*
X179000000Y-57000000D02*
X185500000Y-66500000D01*
X194000000Y-66500000D02*
X185500000Y-66500000D01*
X205500000Y-124000000D02*
X189500000Y-130500000D01*
X209500000Y-96000000D02*
X205500000Y-124000000D01*
X212500000Y-49000000D02*
X194000000Y-66500000D01*
X219000000Y-49000000D02*
X212500000Y-49000000D01*
X219000000Y-77000000D02*
X209500000Y-96000000D01*
X219000000Y-77000000D02*
X219000000Y-49000000D01*
%TO.C,D7*%
D11*
X206300000Y-86605684D02*
X206300000Y-85200000D01*
X207205547Y-84402842D02*
X208794451Y-84402842D01*
X208794451Y-87402841D02*
X207205546Y-87402841D01*
X209699998Y-85200000D02*
X209699998Y-86605684D01*
X206250515Y-84983122D02*
G75*
G02*
X206300000Y-85200000I-450515J-216878D01*
G01*
X206250515Y-84983123D02*
G75*
G02*
X206953288Y-84334543I450514J216880D01*
G01*
X206300000Y-86605685D02*
G75*
G02*
X206250521Y-86822565I-500000J-15D01*
G01*
X206953288Y-87471140D02*
G75*
G02*
X206250516Y-86822562I-252258J431700D01*
G01*
X206953288Y-87471140D02*
G75*
G02*
X207205546Y-87402840I252262J-431710D01*
G01*
X207205547Y-84402842D02*
G75*
G02*
X206953288Y-84334543I3J500012D01*
G01*
X208794452Y-87402842D02*
G75*
G02*
X209046710Y-87471141I-3J-500009D01*
G01*
X209046709Y-84334543D02*
G75*
G02*
X208794451Y-84402842I-252261J431710D01*
G01*
X209046710Y-84334545D02*
G75*
G02*
X209749483Y-84983122I252258J-431700D01*
G01*
X209699998Y-85199999D02*
G75*
G02*
X209749483Y-84983122I499990J1D01*
G01*
X209749483Y-86822562D02*
G75*
G02*
X209046710Y-87471141I-450515J-216878D01*
G01*
X209749483Y-86822562D02*
G75*
G02*
X209699998Y-86605684I450505J216876D01*
G01*
%TO.C,D4*%
X141800002Y-118600000D02*
X141800002Y-117194316D01*
X142705549Y-116397159D02*
X144294454Y-116397159D01*
X144294453Y-119397158D02*
X142705549Y-119397158D01*
X145200000Y-117194316D02*
X145200000Y-118600000D01*
X141750517Y-116977438D02*
G75*
G02*
X141800002Y-117194316I-450505J-216876D01*
G01*
X141750517Y-116977438D02*
G75*
G02*
X142453290Y-116328859I450515J216878D01*
G01*
X141800002Y-118600001D02*
G75*
G02*
X141750517Y-118816878I-499990J-1D01*
G01*
X142453290Y-119465455D02*
G75*
G02*
X141750517Y-118816878I-252258J431700D01*
G01*
X142453291Y-119465457D02*
G75*
G02*
X142705549Y-119397158I252261J-431710D01*
G01*
X142705548Y-116397158D02*
G75*
G02*
X142453290Y-116328859I3J500009D01*
G01*
X144294453Y-119397158D02*
G75*
G02*
X144546712Y-119465457I-3J-500012D01*
G01*
X144546712Y-116328860D02*
G75*
G02*
X144294454Y-116397160I-252262J431710D01*
G01*
X144546712Y-116328860D02*
G75*
G02*
X145249484Y-116977438I252258J-431700D01*
G01*
X145200000Y-117194315D02*
G75*
G02*
X145249479Y-116977435I500000J15D01*
G01*
X145249485Y-118816877D02*
G75*
G02*
X144546712Y-119465457I-450514J-216880D01*
G01*
X145249485Y-118816878D02*
G75*
G02*
X145200000Y-118600000I450515J216878D01*
G01*
%TO.C,D3*%
X130300002Y-86600000D02*
X130300002Y-85194316D01*
X131205549Y-84397159D02*
X132794454Y-84397159D01*
X132794453Y-87397158D02*
X131205549Y-87397158D01*
X133700000Y-85194316D02*
X133700000Y-86600000D01*
X130250517Y-84977438D02*
G75*
G02*
X130300002Y-85194316I-450505J-216876D01*
G01*
X130250517Y-84977438D02*
G75*
G02*
X130953290Y-84328859I450515J216878D01*
G01*
X130300002Y-86600001D02*
G75*
G02*
X130250517Y-86816878I-499990J-1D01*
G01*
X130953290Y-87465455D02*
G75*
G02*
X130250517Y-86816878I-252258J431700D01*
G01*
X130953291Y-87465457D02*
G75*
G02*
X131205549Y-87397158I252261J-431710D01*
G01*
X131205548Y-84397158D02*
G75*
G02*
X130953290Y-84328859I3J500009D01*
G01*
X132794453Y-87397158D02*
G75*
G02*
X133046712Y-87465457I-3J-500012D01*
G01*
X133046712Y-84328860D02*
G75*
G02*
X132794454Y-84397160I-252262J431710D01*
G01*
X133046712Y-84328860D02*
G75*
G02*
X133749484Y-84977438I252258J-431700D01*
G01*
X133700000Y-85194315D02*
G75*
G02*
X133749479Y-84977435I500000J15D01*
G01*
X133749485Y-86816877D02*
G75*
G02*
X133046712Y-87465457I-450514J-216880D01*
G01*
X133749485Y-86816878D02*
G75*
G02*
X133700000Y-86600000I450515J216878D01*
G01*
%TO.C,D6*%
X195800002Y-118600000D02*
X195800002Y-117194316D01*
X196705549Y-116397159D02*
X198294454Y-116397159D01*
X198294453Y-119397158D02*
X196705549Y-119397158D01*
X199200000Y-117194316D02*
X199200000Y-118600000D01*
X195750517Y-116977438D02*
G75*
G02*
X195800002Y-117194316I-450505J-216876D01*
G01*
X195750517Y-116977438D02*
G75*
G02*
X196453290Y-116328859I450515J216878D01*
G01*
X195800002Y-118600001D02*
G75*
G02*
X195750517Y-118816878I-499990J-1D01*
G01*
X196453290Y-119465455D02*
G75*
G02*
X195750517Y-118816878I-252258J431700D01*
G01*
X196453291Y-119465457D02*
G75*
G02*
X196705549Y-119397158I252261J-431710D01*
G01*
X196705548Y-116397158D02*
G75*
G02*
X196453290Y-116328859I3J500009D01*
G01*
X198294453Y-119397158D02*
G75*
G02*
X198546712Y-119465457I-3J-500012D01*
G01*
X198546712Y-116328860D02*
G75*
G02*
X198294454Y-116397160I-252262J431710D01*
G01*
X198546712Y-116328860D02*
G75*
G02*
X199249484Y-116977438I252258J-431700D01*
G01*
X199200000Y-117194315D02*
G75*
G02*
X199249479Y-116977435I500000J15D01*
G01*
X199249485Y-118816877D02*
G75*
G02*
X198546712Y-119465457I-450514J-216880D01*
G01*
X199249485Y-118816878D02*
G75*
G02*
X199200000Y-118600000I450515J216878D01*
G01*
%TO.C,D11*%
X162200001Y-76100000D02*
X162200001Y-74694316D01*
X163105548Y-73897159D02*
X164694453Y-73897159D01*
X164694452Y-76897158D02*
X163105548Y-76897158D01*
X165599999Y-74694316D02*
X165599999Y-76100000D01*
X162150516Y-74477438D02*
G75*
G02*
X162200001Y-74694316I-450505J-216876D01*
G01*
X162150516Y-74477438D02*
G75*
G02*
X162853289Y-73828859I450515J216878D01*
G01*
X162200001Y-76100001D02*
G75*
G02*
X162150516Y-76316878I-499990J-1D01*
G01*
X162853289Y-76965455D02*
G75*
G02*
X162150516Y-76316878I-252258J431700D01*
G01*
X162853290Y-76965457D02*
G75*
G02*
X163105548Y-76897158I252261J-431710D01*
G01*
X163105547Y-73897158D02*
G75*
G02*
X162853289Y-73828859I3J500009D01*
G01*
X164694452Y-76897158D02*
G75*
G02*
X164946711Y-76965457I-3J-500012D01*
G01*
X164946711Y-73828860D02*
G75*
G02*
X164694453Y-73897160I-252262J431710D01*
G01*
X164946711Y-73828860D02*
G75*
G02*
X165649483Y-74477438I252258J-431700D01*
G01*
X165599999Y-74694315D02*
G75*
G02*
X165649478Y-74477435I500000J15D01*
G01*
X165649484Y-76316877D02*
G75*
G02*
X164946711Y-76965457I-450514J-216880D01*
G01*
X165649484Y-76316878D02*
G75*
G02*
X165599999Y-76100000I450515J216878D01*
G01*
%TO.C,D9*%
X214250001Y-54661673D02*
X214250001Y-53072768D01*
X215047158Y-52167222D02*
X216452842Y-52167222D01*
X216452842Y-55567220D02*
X215047158Y-55567220D01*
X217250000Y-53072769D02*
X217250000Y-54661673D01*
X214181702Y-52820510D02*
G75*
G02*
X214250002Y-53072768I-431710J-252262D01*
G01*
X214181702Y-52820510D02*
G75*
G02*
X214830280Y-52117738I431700J252258D01*
G01*
X214250000Y-54661674D02*
G75*
G02*
X214181701Y-54913932I-500009J3D01*
G01*
X214830280Y-55616705D02*
G75*
G02*
X214181701Y-54913932I-216878J450515D01*
G01*
X214830280Y-55616705D02*
G75*
G02*
X215047158Y-55567220I216876J-450505D01*
G01*
X215047157Y-52167222D02*
G75*
G02*
X214830277Y-52117743I-15J500000D01*
G01*
X216452843Y-55567220D02*
G75*
G02*
X216669720Y-55616705I1J-499990D01*
G01*
X216669719Y-52117737D02*
G75*
G02*
X217318299Y-52820510I216880J-450514D01*
G01*
X216669720Y-52117737D02*
G75*
G02*
X216452842Y-52167222I-216878J450515D01*
G01*
X217250000Y-53072769D02*
G75*
G02*
X217318299Y-52820510I500012J-3D01*
G01*
X217318297Y-54913932D02*
G75*
G02*
X216669720Y-55616705I-431700J-252258D01*
G01*
X217318299Y-54913931D02*
G75*
G02*
X217250000Y-54661673I431710J252261D01*
G01*
%TO.C,D8*%
X215402842Y-73294453D02*
X215402842Y-71705549D01*
X216200000Y-70800002D02*
X217605684Y-70800002D01*
X217605684Y-74200000D02*
X216200000Y-74200000D01*
X218402841Y-71705549D02*
X218402841Y-73294454D01*
X215334543Y-71453291D02*
G75*
G02*
X215402842Y-71705549I-431710J-252261D01*
G01*
X215334545Y-71453290D02*
G75*
G02*
X215983122Y-70750517I431700J252258D01*
G01*
X215402842Y-73294453D02*
G75*
G02*
X215334543Y-73546712I-500012J3D01*
G01*
X215983122Y-74249485D02*
G75*
G02*
X216200000Y-74200000I216878J-450515D01*
G01*
X215983123Y-74249485D02*
G75*
G02*
X215334543Y-73546712I-216880J450514D01*
G01*
X216199999Y-70800002D02*
G75*
G02*
X215983122Y-70750517I-1J499990D01*
G01*
X217605685Y-74200000D02*
G75*
G02*
X217822565Y-74249479I15J-500000D01*
G01*
X217822562Y-70750517D02*
G75*
G02*
X217605684Y-70800002I-216876J450505D01*
G01*
X217822562Y-70750517D02*
G75*
G02*
X218471141Y-71453290I216878J-450515D01*
G01*
X218402842Y-71705548D02*
G75*
G02*
X218471141Y-71453290I500009J-3D01*
G01*
X218471140Y-73546712D02*
G75*
G02*
X217822562Y-74249484I-431700J-252258D01*
G01*
X218471140Y-73546712D02*
G75*
G02*
X218402840Y-73294454I431710J252262D01*
G01*
%TO.C,D12*%
X171772897Y-61515960D02*
X171772897Y-60110276D01*
X172678444Y-59313119D02*
X174267349Y-59313119D01*
X174267348Y-62313118D02*
X172678444Y-62313118D01*
X175172895Y-60110276D02*
X175172895Y-61515960D01*
X171723412Y-59893398D02*
G75*
G02*
X171772897Y-60110276I-450505J-216876D01*
G01*
X171723412Y-59893398D02*
G75*
G02*
X172426185Y-59244819I450515J216878D01*
G01*
X171772897Y-61515961D02*
G75*
G02*
X171723412Y-61732838I-499990J-1D01*
G01*
X172426185Y-62381415D02*
G75*
G02*
X171723412Y-61732838I-252258J431700D01*
G01*
X172426186Y-62381417D02*
G75*
G02*
X172678444Y-62313118I252261J-431710D01*
G01*
X172678443Y-59313118D02*
G75*
G02*
X172426185Y-59244819I3J500009D01*
G01*
X174267348Y-62313118D02*
G75*
G02*
X174519607Y-62381417I-3J-500012D01*
G01*
X174519607Y-59244820D02*
G75*
G02*
X174267349Y-59313120I-252262J431710D01*
G01*
X174519607Y-59244820D02*
G75*
G02*
X175222379Y-59893398I252258J-431700D01*
G01*
X175172895Y-60110275D02*
G75*
G02*
X175222374Y-59893395I500000J15D01*
G01*
X175222380Y-61732837D02*
G75*
G02*
X174519607Y-62381417I-450514J-216880D01*
G01*
X175222380Y-61732838D02*
G75*
G02*
X175172895Y-61515960I450515J216878D01*
G01*
%TO.C,D2*%
X121397159Y-72794451D02*
X121397159Y-71205546D01*
X122194316Y-70300000D02*
X123600000Y-70300000D01*
X123600000Y-73699998D02*
X122194316Y-73699998D01*
X124397158Y-71205547D02*
X124397158Y-72794451D01*
X121328860Y-70953288D02*
G75*
G02*
X121397160Y-71205546I-431710J-252262D01*
G01*
X121328860Y-70953288D02*
G75*
G02*
X121977438Y-70250516I431700J252258D01*
G01*
X121397158Y-72794452D02*
G75*
G02*
X121328859Y-73046710I-500009J3D01*
G01*
X121977438Y-73749483D02*
G75*
G02*
X121328859Y-73046710I-216878J450515D01*
G01*
X121977438Y-73749483D02*
G75*
G02*
X122194316Y-73699998I216876J-450505D01*
G01*
X122194315Y-70300000D02*
G75*
G02*
X121977435Y-70250521I-15J500000D01*
G01*
X123600001Y-73699998D02*
G75*
G02*
X123816878Y-73749483I1J-499990D01*
G01*
X123816877Y-70250515D02*
G75*
G02*
X124465457Y-70953288I216880J-450514D01*
G01*
X123816878Y-70250515D02*
G75*
G02*
X123600000Y-70300000I-216878J450515D01*
G01*
X124397158Y-71205547D02*
G75*
G02*
X124465457Y-70953288I500012J-3D01*
G01*
X124465455Y-73046710D02*
G75*
G02*
X123816878Y-73749483I-431700J-252258D01*
G01*
X124465457Y-73046709D02*
G75*
G02*
X124397158Y-72794451I431710J252261D01*
G01*
%TO.C,D5*%
X169300002Y-112100000D02*
X169300002Y-110694316D01*
X170205549Y-109897159D02*
X171794454Y-109897159D01*
X171794453Y-112897158D02*
X170205549Y-112897158D01*
X172700000Y-110694316D02*
X172700000Y-112100000D01*
X169250517Y-110477438D02*
G75*
G02*
X169300002Y-110694316I-450505J-216876D01*
G01*
X169250517Y-110477438D02*
G75*
G02*
X169953290Y-109828859I450515J216878D01*
G01*
X169300002Y-112100001D02*
G75*
G02*
X169250517Y-112316878I-499990J-1D01*
G01*
X169953290Y-112965455D02*
G75*
G02*
X169250517Y-112316878I-252258J431700D01*
G01*
X169953291Y-112965457D02*
G75*
G02*
X170205549Y-112897158I252261J-431710D01*
G01*
X170205548Y-109897158D02*
G75*
G02*
X169953290Y-109828859I3J500009D01*
G01*
X171794453Y-112897158D02*
G75*
G02*
X172046712Y-112965457I-3J-500012D01*
G01*
X172046712Y-109828860D02*
G75*
G02*
X171794454Y-109897160I-252262J431710D01*
G01*
X172046712Y-109828860D02*
G75*
G02*
X172749484Y-110477438I252258J-431700D01*
G01*
X172700000Y-110694315D02*
G75*
G02*
X172749479Y-110477435I500000J15D01*
G01*
X172749485Y-112316877D02*
G75*
G02*
X172046712Y-112965457I-450514J-216880D01*
G01*
X172749485Y-112316878D02*
G75*
G02*
X172700000Y-112100000I450515J216878D01*
G01*
%TO.C,D1*%
X121897159Y-54661673D02*
X121897159Y-53072768D01*
X122694316Y-52167222D02*
X124100000Y-52167222D01*
X124100000Y-55567220D02*
X122694316Y-55567220D01*
X124897158Y-53072769D02*
X124897158Y-54661673D01*
X121828860Y-52820510D02*
G75*
G02*
X121897160Y-53072768I-431710J-252262D01*
G01*
X121828860Y-52820510D02*
G75*
G02*
X122477438Y-52117738I431700J252258D01*
G01*
X121897158Y-54661674D02*
G75*
G02*
X121828859Y-54913932I-500009J3D01*
G01*
X122477438Y-55616705D02*
G75*
G02*
X121828859Y-54913932I-216878J450515D01*
G01*
X122477438Y-55616705D02*
G75*
G02*
X122694316Y-55567220I216876J-450505D01*
G01*
X122694315Y-52167222D02*
G75*
G02*
X122477435Y-52117743I-15J500000D01*
G01*
X124100001Y-55567220D02*
G75*
G02*
X124316878Y-55616705I1J-499990D01*
G01*
X124316877Y-52117737D02*
G75*
G02*
X124965457Y-52820510I216880J-450514D01*
G01*
X124316878Y-52117737D02*
G75*
G02*
X124100000Y-52167222I-216878J450515D01*
G01*
X124897158Y-53072769D02*
G75*
G02*
X124965457Y-52820510I500012J-3D01*
G01*
X124965455Y-54913932D02*
G75*
G02*
X124316878Y-55616705I-431700J-252258D01*
G01*
X124965457Y-54913931D02*
G75*
G02*
X124897158Y-54661673I431710J252261D01*
G01*
%TO.C,D10*%
X175800002Y-76100000D02*
X175800002Y-74694316D01*
X176705549Y-73897159D02*
X178294454Y-73897159D01*
X178294453Y-76897158D02*
X176705549Y-76897158D01*
X179200000Y-74694316D02*
X179200000Y-76100000D01*
X175750517Y-74477438D02*
G75*
G02*
X175800002Y-74694316I-450505J-216876D01*
G01*
X175750517Y-74477438D02*
G75*
G02*
X176453290Y-73828859I450515J216878D01*
G01*
X175800002Y-76100001D02*
G75*
G02*
X175750517Y-76316878I-499990J-1D01*
G01*
X176453290Y-76965455D02*
G75*
G02*
X175750517Y-76316878I-252258J431700D01*
G01*
X176453291Y-76965457D02*
G75*
G02*
X176705549Y-76897158I252261J-431710D01*
G01*
X176705548Y-73897158D02*
G75*
G02*
X176453290Y-73828859I3J500009D01*
G01*
X178294453Y-76897158D02*
G75*
G02*
X178546712Y-76965457I-3J-500012D01*
G01*
X178546712Y-73828860D02*
G75*
G02*
X178294454Y-73897160I-252262J431710D01*
G01*
X178546712Y-73828860D02*
G75*
G02*
X179249484Y-74477438I252258J-431700D01*
G01*
X179200000Y-74694315D02*
G75*
G02*
X179249479Y-74477435I500000J15D01*
G01*
X179249485Y-76316877D02*
G75*
G02*
X178546712Y-76965457I-450514J-216880D01*
G01*
X179249485Y-76316878D02*
G75*
G02*
X179200000Y-76100000I450515J216878D01*
G01*
%TD*%
M02*
